<svg xmlns="http://www.w3.org/2000/svg" width="819.546" height="89.75" viewBox="0 0 819.546 89.75"><defs><style>.a{fill:#fff;}</style></defs><path class="a" d="M1071.1,400.933h26.916l-16.86-38.144L1064.6,401.159Zm38.862,33.683v-.227a3.366,3.366,0,0,0,.189-.907v-1.058a18.905,18.905,0,0,0-.529-4.12,35.666,35.666,0,0,0-1.928-5.633l-7.3-16.331H1062.29l-6.918,15.878-1.89,4.839a14.854,14.854,0,0,0-1.021,5.368,6.267,6.267,0,0,0,0,1.286,2.269,2.269,0,0,0,.227.68v.227H1040.44v-.227a20.681,20.681,0,0,0,2.722-4.045c1.059-1.928,2.268-4.385,3.516-7.3l34.4-76.288h4.8L1118.5,420.1c.756,1.739,1.55,3.4,2.344,5.028s1.588,3.062,2.344,4.347l1.89,3.251c.567.87.945,1.437,1.134,1.663v.227Zm-79.388-72.847-.529.227a36.254,36.254,0,0,0-11.341-6.918,39.538,39.538,0,0,0-14.441-2.571,39.012,39.012,0,0,0-13.874,2.382,30.242,30.242,0,0,0-10.812,6.88,30.807,30.807,0,0,0-7.069,11.039,41.582,41.582,0,0,0-2.533,14.894,58.074,58.074,0,0,0,2.419,17.125,40.225,40.225,0,0,0,7.145,13.8,33.264,33.264,0,0,0,11.87,9.148A39.05,39.05,0,0,0,1008,431.1a35.343,35.343,0,0,0,6.843-.718,33.5,33.5,0,0,0,6.578-2.155,35.465,35.465,0,0,0,5.935-3.4,29.275,29.275,0,0,0,5.065-4.612l.643.416-4.8,12.248a49.5,49.5,0,0,1-9.942,2.684,62.407,62.407,0,0,1-10.925.945,61.2,61.2,0,0,1-20.339-3.213,47.031,47.031,0,0,1-15.84-9.111A40.6,40.6,0,0,1,960.9,410.043a44.381,44.381,0,0,1-3.78-18.335,43.4,43.4,0,0,1,1.475-11.341,46.119,46.119,0,0,1,4.272-10.509,44.877,44.877,0,0,1,6.994-9.149,43.74,43.74,0,0,1,9.451-7.221,48.21,48.21,0,0,1,11.719-4.763,51.692,51.692,0,0,1,13.8-1.739,62.943,62.943,0,0,1,21.51,3.554ZM868.017,348.537l61.847,65.816V363.016c0-2.533-.227-4.725-.378-6.616s-.34-3.4-.567-4.65-.453-2.268-.68-3.138v-.227H938.9v.227a30.223,30.223,0,0,0-.643,3.138,40.043,40.043,0,0,0-.529,4.65c0,1.89-.3,4.083-.378,6.616s0,5.519,0,8.922v63.737h-2.117l-61.96-65.7v49.976c0,2.533.189,4.688.34,6.54s.34,3.4.567,4.65a22.077,22.077,0,0,0,.643,3.1v.378H864.161v-.227c.227-.832.454-1.89.68-3.1s.378-2.8.567-4.65.265-4.007.34-6.54,0-5.557,0-8.959V363.016a39.108,39.108,0,0,0-.34-6.616c-.34-1.89-.378-3.4-.567-4.65a29.131,29.131,0,0,0-.68-3.138v-.227Zm-71.6,52.547h26.916l-16.86-38.144-16.558,38.371Zm38.938,33.532v-.227a2.341,2.341,0,0,0,.189-.907c0-.378,0-.756,0-1.059a16.862,16.862,0,0,0-.529-4.121,35.687,35.687,0,0,0-1.928-5.633l-7.258-16.482H787.609l-6.88,15.878c-.6,1.474-1.247,3.1-1.928,4.839a14.858,14.858,0,0,0-1.021,5.368,6.261,6.261,0,0,0,0,1.285,2.271,2.271,0,0,0,.227.68v.378H765.759v-.227a19.125,19.125,0,0,0,2.722-4.045c1.1-1.928,2.268-4.385,3.554-7.3l34.4-76.288H811.2L843.823,420.1c.756,1.739,1.55,3.4,2.382,5.028s1.55,3.062,2.306,4.347l1.89,3.251c.6.87.945,1.437,1.172,1.663v.227ZM726.4,429.361c4.725,0,9.073-.227,13.042-.6s7.561-.87,10.4-1.361,6.578-1.248,9.413-2l-1.739,9.716H713.552v-.227a27.455,27.455,0,0,0,.718-3.1c0-1.248.378-2.8.529-4.65s.3-4.007.378-6.54,0-5.557,0-8.959V363.016a35.25,35.25,0,0,0-.378-6.616c-.378-1.89-.34-3.4-.529-4.65a28.311,28.311,0,0,0-.718-3.138v-.227h14.4v.227c-.227.869-.454,1.89-.68,3.138a39.978,39.978,0,0,0-.529,4.65c0,1.89-.265,4.083-.378,6.616s0,5.519,0,8.922ZM651.932,387.4c1.134,0,2.155.189,3.024.227h2.8a22.686,22.686,0,0,0,7.561-1.172,15.457,15.457,0,0,0,5.708-3.516,15.728,15.728,0,0,0,3.78-5.859,23.4,23.4,0,0,0,1.323-8.165,24.466,24.466,0,0,0-.983-7.107,15.539,15.539,0,0,0-2.835-5.444,12.78,12.78,0,0,0-4.65-3.44,15.8,15.8,0,0,0-6.313-1.21,26.138,26.138,0,0,0-4.007.189l-2.911.416a13.931,13.931,0,0,0-2.344.6Zm11.114,4.536a52.032,52.032,0,0,0-6.843.265c-1.852.265-3.251.416-4.272.643v18.146c0,4.688,0,8.544.265,11.606s.378,5.519.643,7.561l4.574.529c1.512,0,2.76.227,3.78.227a22.682,22.682,0,0,0,16.407-4.99,20.413,20.413,0,0,0,5.179-15.386,21.586,21.586,0,0,0-1.209-7.561,16.215,16.215,0,0,0-3.78-5.859,16.711,16.711,0,0,0-6.124-3.781,25.816,25.816,0,0,0-8.657-1.4Zm-22-20v-8.922c0-2.533-.189-4.725-.34-6.616s-.378-3.4-.567-4.65a28.311,28.311,0,0,0-.718-3.138v-.227h8.014a50.267,50.267,0,0,0,5.822-.454,93.161,93.161,0,0,1,9.526-.378,34.817,34.817,0,0,1,9.98,1.361A23.51,23.51,0,0,1,680.625,353a17.955,17.955,0,0,1,5.255,6.5,19.96,19.96,0,0,1,1.89,8.808,22.683,22.683,0,0,1-1.134,7.561,17.313,17.313,0,0,1-3.213,5.671,18.183,18.183,0,0,1-4.99,4.12,29.04,29.04,0,0,1-6.389,2.609,38.118,38.118,0,0,1,9.3,2.609,26.166,26.166,0,0,1,7.22,4.574,19.167,19.167,0,0,1,4.688,6.464,19.813,19.813,0,0,1,1.663,8.166,22.341,22.341,0,0,1-8.355,18.9q-8.354,6.351-24.988,6.351h-4.2l-4.877-.34-4.914-.34h-8.166v-.227a27.447,27.447,0,0,0,.719-3.1c.189-1.247.416-2.8.567-4.65s.265-4.007.34-6.54,0-5.557,0-8.96Zm-70.012,29h26.954l-16.86-38.144-16.6,38.371Zm38.862,33.683v-.227a3.378,3.378,0,0,0,.189-.907v-1.058a18.887,18.887,0,0,0-.491-4.12,32.766,32.766,0,0,0-1.966-5.633l-7.258-16.331H562.262l-6.918,15.878c-.6,1.475-1.21,3.1-1.928,4.839a14.821,14.821,0,0,0-.983,5.368,6.5,6.5,0,0,0,0,1.285,2.081,2.081,0,0,0,.265.68v.227H540.449v-.227a20.958,20.958,0,0,0,2.684-4.045c1.1-1.928,2.268-4.385,3.554-7.3l34.4-76.288h4.8L618.476,420.1c.756,1.739,1.55,3.4,2.382,5.028s1.588,3.062,2.306,4.347,1.361,2.344,1.928,3.251a17.519,17.519,0,0,0,1.134,1.663v.227ZM524.76,362.259H523.4a13.787,13.787,0,0,0-1.512-3.138,14.4,14.4,0,0,0-12.626-6.842,15.123,15.123,0,0,0-5.255.87,11.34,11.34,0,0,0-3.78,2.533,11.111,11.111,0,0,0-2.344,3.78,15.709,15.709,0,0,0,1.663,13.193,50.036,50.036,0,0,0,6.086,7.75c2.457,2.571,5.1,5.1,7.939,7.561a99.155,99.155,0,0,1,7.939,8.014,46.691,46.691,0,0,1,6.086,8.657,20.265,20.265,0,0,1,2.419,9.753,24.644,24.644,0,0,1-1.323,7.825,20.071,20.071,0,0,1-4.2,7.069,20.98,20.98,0,0,1-7.258,5.066,26.462,26.462,0,0,1-10.585,1.966,32.976,32.976,0,0,1-6.5-.643,44.586,44.586,0,0,1-5.709-1.55,36.414,36.414,0,0,1-4.687-2,32.943,32.943,0,0,1-3.364-2l1.361-13.269h1.512a19.957,19.957,0,0,0,2.155,5.368,19.468,19.468,0,0,0,3.78,4.537,18.184,18.184,0,0,0,4.99,3.1,15.877,15.877,0,0,0,6.2,1.172,15.578,15.578,0,0,0,5.482-.907,12.552,12.552,0,0,0,4.158-2.608,10.886,10.886,0,0,0,2.684-3.78,12.627,12.627,0,0,0,.945-4.99,17.733,17.733,0,0,0-1.361-6.994,28.955,28.955,0,0,0-3.78-6.086,53.77,53.77,0,0,0-5.1-5.595l-5.822-5.406c-2-1.852-3.78-3.78-5.859-5.633a39.48,39.48,0,0,1-5.1-6.162,29.988,29.988,0,0,1-3.78-6.994,23.362,23.362,0,0,1-1.4-8.279,19.125,19.125,0,0,1,1.928-8.581,19.769,19.769,0,0,1,4.839-6.5,22.038,22.038,0,0,1,6.88-4.159,22.686,22.686,0,0,1,7.9-1.437,28.174,28.174,0,0,1,5.557.492,33.11,33.11,0,0,1,4.537,1.134,29.457,29.457,0,0,1,3.478,1.323l2.457,1.1ZM420.612,401.084h26.954l-16.86-38.144L414.147,401.31Zm38.9,33.532v-.227a3.376,3.376,0,0,0,0-.907c0-.378,0-.756,0-1.058a18.9,18.9,0,0,0-.529-4.12,35.686,35.686,0,0,0-1.928-5.633l-7.3-16.331H411.652l-6.918,15.878-1.89,4.839a14.857,14.857,0,0,0-1.021,5.368,4.38,4.38,0,0,0,0,1.285,2.265,2.265,0,0,0,.227.68v.227H389.8v-.227a20.679,20.679,0,0,0,2.722-4.045c1.058-1.928,2.268-4.385,3.516-7.3l34.4-76.288h4.8L467.866,420.1c.756,1.739,1.55,3.4,2.344,5.028s1.588,3.062,2.344,4.347,1.323,2.344,1.89,3.251a17.519,17.519,0,0,0,1.134,1.663v.227Zm-79.388-72.847-.529.227a36.25,36.25,0,0,0-11.341-6.918,39.539,39.539,0,0,0-14.441-2.571,39.014,39.014,0,0,0-13.874,2.382,30.24,30.24,0,0,0-10.812,6.88,30.807,30.807,0,0,0-7.069,11.039,40.6,40.6,0,0,0-2.533,14.894,58.073,58.073,0,0,0,2.42,17.125,39.544,39.544,0,0,0,7.145,13.8,33.266,33.266,0,0,0,11.87,9.148,39.049,39.049,0,0,0,16.6,3.327,35.366,35.366,0,0,0,6.842-.718,33.5,33.5,0,0,0,6.578-2.155,35.454,35.454,0,0,0,5.935-3.4,29.247,29.247,0,0,0,5.066-4.612l.643.416-4.8,12.248a49.5,49.5,0,0,1-9.942,2.684,62.408,62.408,0,0,1-10.925.945,61.2,61.2,0,0,1-20.338-3.213,47.028,47.028,0,0,1-15.84-9.111,40.6,40.6,0,0,1-10.32-14.139,44.381,44.381,0,0,1-3.78-18.335,43.4,43.4,0,0,1,1.474-11.341,46.116,46.116,0,0,1,4.272-10.509,44.871,44.871,0,0,1,6.994-9.149,43.745,43.745,0,0,1,9.451-7.221,48.21,48.21,0,0,1,11.719-4.763,51.687,51.687,0,0,1,13.8-1.739,62.945,62.945,0,0,1,21.51,3.554Z" transform="translate(-306.669 -346.76)"/></svg>