<svg xmlns="http://www.w3.org/2000/svg" width="64" height="30" viewBox="0 0 64 30"><defs><style>.a{fill:#263238;}.b{fill:#baa68b;}</style></defs><g transform="translate(-210 -2209.5)"><g transform="translate(210 2181.25)"><path class="a" d="M3.5,58.25H.5a.5.5,0,0,1,0-1h3a.5.5,0,0,1,0,1Z"/></g><g transform="translate(210 2181.25)"><path class="a" d="M63.5,58.25H5.5a.5.5,0,0,1,0-1h58a.5.5,0,0,1,0,1Z"/></g><g transform="translate(210 2181.25)"><path class="a" d="M48,49.25a.5.5,0,0,1-.448-.276l-10-20a.5.5,0,0,1,.022-.486A.5.5,0,0,1,38,28.25h5a.5.5,0,0,1,0,1H38.809l9.638,19.276a.5.5,0,0,1-.224.671A.491.491,0,0,1,48,49.25Z"/></g><g transform="translate(210 2181.25)"><path class="a" d="M48,58.25a9.5,9.5,0,0,1-6.03-16.84.5.5,0,0,1,.635.773A8.641,8.641,0,1,0,45.988,40.5a.5.5,0,1,1-.236-.972A9.5,9.5,0,1,1,48,58.25Z"/></g><g transform="translate(210 2181.25)"><path class="b" d="M48,55.25a6.5,6.5,0,0,1-4.677-11.008.5.5,0,0,1,.72.694A5.5,5.5,0,1,0,48,43.25a5.6,5.6,0,0,0-.677.046A.5.5,0,1,1,47.2,42.3a6.413,6.413,0,0,1,.8-.054,6.5,6.5,0,1,1,0,13Z"/></g><g transform="translate(210 2181.25)"><path class="a" d="M29.871,46.471a.5.5,0,0,1-.463-.312L24.037,32.938a.5.5,0,1,1,.926-.376l5.371,13.221a.5.5,0,0,1-.463.688Z"/></g><g transform="translate(210 2181.25)"><path class="a" d="M27.548,33.25H22.5a1.5,1.5,0,0,1-1.5-1.5v-1a1.5,1.5,0,0,1,1.5-1.5h3.622a2.982,2.982,0,0,1,2.683,1.658l.085.171a1.5,1.5,0,0,1-1.342,2.171Zm-5.048-3a.5.5,0,0,0-.5.5v1a.5.5,0,0,0,.5.5h5.048a.5.5,0,0,0,.447-.723l-.085-.171a1.988,1.988,0,0,0-1.789-1.1H22.5Z"/></g><g transform="translate(210 2181.25)"><path class="a" d="M31,52.25a3.5,3.5,0,1,1,3.5-3.5A3.5,3.5,0,0,1,31,52.25Zm0-6a2.5,2.5,0,1,0,2.5,2.5A2.5,2.5,0,0,0,31,46.25Z"/></g><g transform="translate(210 2181.25)"><path class="a" d="M28,49.25H16.5a.5.5,0,0,1-.385-.82l10-12a.5.5,0,0,1,.384-.18H41a.5.5,0,0,1,.385.82l-8.08,9.695a.5.5,0,1,1-.769-.641l7.4-8.875h-13.2l-9.167,11H28a.5.5,0,0,1,0,1Z"/></g><g transform="translate(210 2181.25)"><path class="a" d="M24.769,47.25a.5.5,0,0,1-.487-.389A8.449,8.449,0,0,0,22.974,43.9a.5.5,0,0,1,.821-.571,9.394,9.394,0,0,1,1.462,3.312.5.5,0,0,1-.376.6A.541.541,0,0,1,24.769,47.25Z"/></g><g transform="translate(210 2181.25)"><path class="a" d="M16,58.25a9.5,9.5,0,1,1,4.67-17.768.5.5,0,0,1-.492.87,8.5,8.5,0,1,0,4.1,9.287.5.5,0,0,1,.976.222A9.447,9.447,0,0,1,16,58.25Z"/></g><g transform="translate(210 2181.25)"><path class="b" d="M16,55.25a6.5,6.5,0,1,1,2.661-12.427.5.5,0,1,1-.41.912A5.5,5.5,0,1,0,16,54.25a5.508,5.508,0,0,0,5.18-3.667.5.5,0,1,1,.942.334A6.51,6.51,0,0,1,16,55.25Z"/></g><g transform="translate(210 2181.25)"><path class="a" d="M31,54.25a.5.5,0,0,1-.5-.5v-5a.5.5,0,0,1,1,0v5A.5.5,0,0,1,31,54.25Z"/></g></g></svg>