<svg xmlns="http://www.w3.org/2000/svg" width="64" height="31" viewBox="0 0 64 31"><defs><style>.a{fill:none;}.b{fill:#263238;}.c{fill:#baa68b;}</style></defs><g transform="translate(0.733 0.479)"><path class="a" d="M62.013,47.379l-.455-.228-.668-3.207a5.019,5.019,0,0,0-4.042-3.93l-8.169-1.43-10.95-8.905A7.473,7.473,0,0,0,33.012,28H20.183a4.989,4.989,0,0,0-3.645,1.586l-6.527,6.982H1.767a1.008,1.008,0,0,0-.858,1.526L3,41.608v5.544H3a2.033,2.033,0,0,0-1.978,2.463L2,54.207H7.508a6.539,6.539,0,0,1-.5-2.274,6.62,6.62,0,0,1,6.424-6.8,6.559,6.559,0,0,1,6.085,9.072H44.049a6.539,6.539,0,0,1-.5-2.274,6.621,6.621,0,0,1,6.424-6.8,6.559,6.559,0,0,1,6.085,9.072h5.506l1.452-4.386A2.02,2.02,0,0,0,62.013,47.379Zm-41.946-8.8a2.519,2.519,0,0,1-2.239-3.647l1.5-3.024a2.5,2.5,0,0,1,2.239-1.393H38.763l9.916,8.064Zm38.715,8.568L57.5,44.578a1.007,1.007,0,0,1,.9-1.459h2.237a4.975,4.975,0,0,1,.253.825l.669,3.207H58.782Z" transform="translate(-0.765 -28)"/></g><g transform="translate(0.252)"><path class="b" d="M61.529,54.666H58.152a.5.5,0,0,1,0-1.006h3.016L62.5,49.626A1.52,1.52,0,0,0,61.75,47.8l-.455-.227a.5.5,0,0,1-.267-.347l-.667-3.2a4.491,4.491,0,0,0-3.635-3.531l-8.164-1.428a.5.5,0,0,1-.228-.1L37.39,30.072a7,7,0,0,0-4.4-1.565H20.17a4.506,4.506,0,0,0-3.279,1.425L10.37,36.9a.51.51,0,0,1-.365.157H1.768a.5.5,0,0,0-.43.762L3.43,41.326a.5.5,0,0,1,.071.26V47.12a.5.5,0,0,1-.5.5,1.511,1.511,0,0,0-1.184.568,1.534,1.534,0,0,0-.305,1.283L2.4,53.66H5.377a.5.5,0,0,1,0,1.006H2a.5.5,0,0,1-.489-.4L.534,49.685A2.537,2.537,0,0,1,2.5,46.666V41.725L.48,38.337a1.5,1.5,0,0,1-.019-1.52,1.483,1.483,0,0,1,1.307-.765H9.789l6.374-6.812A5.508,5.508,0,0,1,20.17,27.5H32.99a8,8,0,0,1,5.028,1.787l10.843,8.807L56.9,39.5a5.488,5.488,0,0,1,4.442,4.316l.618,2.962.238.119a2.533,2.533,0,0,1,1.26,3.048L62,54.322A.5.5,0,0,1,61.529,54.666Z" transform="translate(-0.263 -27.5)"/></g><g transform="translate(0 30.041)"><path class="b" d="M3.355,58.459H.479a.479.479,0,1,1,0-.959H3.355a.479.479,0,1,1,0,.959Z" transform="translate(0 -57.5)"/></g><g transform="translate(4.793 30.041)"><path class="b" d="M63.706,58.459H5.5a.48.48,0,1,1,0-.959h58.2a.48.48,0,1,1,0,.959Z" transform="translate(-5 -57.5)"/></g><g transform="translate(43.871 17.58)"><path class="b" d="M49.71,57.92a6.71,6.71,0,1,1,6.71-6.71A6.717,6.717,0,0,1,49.71,57.92Zm0-12.461a5.751,5.751,0,1,0,5.751,5.751A5.757,5.757,0,0,0,49.71,45.459Z" transform="translate(-43 -44.5)"/></g><g transform="translate(46.272 20.456)"><path class="c" d="M49.834,55.168a3.834,3.834,0,1,1,3.834-3.834A3.838,3.838,0,0,1,49.834,55.168Zm0-6.71a2.876,2.876,0,1,0,2.876,2.876A2.879,2.879,0,0,0,49.834,48.459Z" transform="translate(-46 -47.5)"/></g><g transform="translate(6.23 17.58)"><path class="b" d="M13.21,57.92a6.71,6.71,0,1,1,6.71-6.71A6.717,6.717,0,0,1,13.21,57.92Zm0-12.461a5.751,5.751,0,1,0,5.751,5.751A5.757,5.757,0,0,0,13.21,45.459Z" transform="translate(-6.5 -44.5)"/></g><g transform="translate(21.56 26.207)"><path class="b" d="M41.015,54.459H21.6a.479.479,0,0,1,0-.959h19.41a.479.479,0,1,1,0,.959Z" transform="translate(-21.125 -53.5)"/></g><g transform="translate(9.106 20.456)"><path class="c" d="M13.334,55.168a3.834,3.834,0,1,1,3.834-3.834A3.838,3.838,0,0,1,13.334,55.168Zm0-6.71a2.876,2.876,0,1,0,2.876,2.876A2.879,2.879,0,0,0,13.334,48.459Z" transform="translate(-9.5 -47.5)"/></g><g transform="translate(17.753 2.396)"><path class="b" d="M47.316,38.627h-27.4a2.876,2.876,0,0,1-2.572-4.162l1.438-2.876h0A2.86,2.86,0,0,1,21.358,30H37.821a.479.479,0,0,1,.3.106l9.494,7.668a.479.479,0,0,1-.3.852ZM19.643,32.018l-1.438,2.876a1.917,1.917,0,0,0,1.715,2.775H45.959l-8.308-6.71H21.358a1.908,1.908,0,0,0-1.715,1.059Z" transform="translate(-17.042 -30)"/></g><g transform="translate(47.156 12.576)"><path class="b" d="M47.6,43.786a.479.479,0,0,1-.479-.479V40.479a.479.479,0,0,1,.959,0v2.828A.479.479,0,0,1,47.6,43.786Z" transform="translate(-47.125 -40)"/></g><g transform="translate(30.02 12.85)"><path class="b" d="M30.479,51.982A.479.479,0,0,1,30,51.5V40.479a.479.479,0,0,1,.959,0V51.5A.479.479,0,0,1,30.479,51.982Z" transform="translate(-30 -40)"/></g><g transform="translate(30.02 2.396)"><path class="b" d="M30.479,38.627A.479.479,0,0,1,30,38.148V30.479a.479.479,0,1,1,.959,0v7.668A.479.479,0,0,1,30.479,38.627Z" transform="translate(-30 -30)"/></g><g transform="translate(5.392 11.088)"><path class="b" d="M8.98,43.293H7.063a1.44,1.44,0,0,1-1.438-1.438V39.938A1.44,1.44,0,0,1,7.063,38.5H8.98a1.44,1.44,0,0,1,1.438,1.438v1.917A1.44,1.44,0,0,1,8.98,43.293ZM7.063,39.459a.479.479,0,0,0-.479.479v1.917a.479.479,0,0,0,.479.479H8.98a.479.479,0,0,0,.479-.479V39.938a.479.479,0,0,0-.479-.479Z" transform="translate(-5.625 -38.5)"/></g><g transform="translate(57.132 15.121)"><path class="b" d="M61.3,47.293H58.639a.48.48,0,0,1-.428-.265l-1.223-2.447a1.437,1.437,0,0,1,1.285-2.08h2.141a.48.48,0,0,1,.446.3,5.251,5.251,0,0,1,.266.863l.639,3.05a.479.479,0,0,1-.469.577Zm-2.362-.959h1.771l-.519-2.472a3.863,3.863,0,0,0-.109-.4H58.272a.479.479,0,0,0-.428.693Z" transform="translate(-56.835 -42.501)"/></g><g transform="translate(37.249 5.524)"><path class="b" d="M40.013,35.876a.473.473,0,0,1-.3-.106l-2.373-1.917a.479.479,0,0,1,.6-.746l2.373,1.917a.479.479,0,0,1-.3.852Z" transform="translate(-37.161 -33)"/></g><g transform="translate(17.053 12.576)"><path class="b" d="M17.521,43.786a.479.479,0,0,1-.479-.479V40.479a.479.479,0,0,1,.959,0v2.828A.479.479,0,0,1,17.521,43.786Z" transform="translate(-17.042 -40)"/></g></svg>