<svg xmlns="http://www.w3.org/2000/svg" width="24.978" height="19.358" viewBox="0 0 24.978 19.358"><defs><style>.a{fill:#ccd3eb;}.b{fill:#f5f7ff;}.c{fill:#647499;}.d{fill:#b4cde1;}.e{fill:#fe9661;}.f{fill:#4795ea;}.g{fill:#033c59;}.h{fill:#baa68b;}</style></defs><path class="a" d="M26.172,10.611V20.28a1.611,1.611,0,0,1-1.611,1.611H21.74l-1.209-3.573a.915.915,0,0,0-.87-.455H8.111a.866.866,0,0,0-.874.475l-.274,1.209-.532,2.345H2V10.611A1.611,1.611,0,0,1,3.611,9H24.56a1.64,1.64,0,0,1,.246.02A1.611,1.611,0,0,1,26.172,10.611Z" transform="translate(-1.597 -8.597)"/><path class="b" d="M28.56,10.611V20.28a1.611,1.611,0,0,1-1.611,1.611h-2.82L22.92,18.318a.915.915,0,0,0-.87-.455H10.5a.866.866,0,0,0-.874.475l-.274,1.209A9.572,9.572,0,0,1,6,12.291V9H27.195A1.611,1.611,0,0,1,28.56,10.611Z" transform="translate(-3.986 -8.597)"/><path class="c" d="M28.309,35.022H13l.806-3.533a.866.866,0,0,1,.874-.5H26.23a.915.915,0,0,1,.87.435Z" transform="translate(-8.166 -21.727)"/><path class="d" d="M29.763,26.806h-6.8a.4.4,0,0,1,0-.806h6.8a.4.4,0,1,1,0,.806Z" transform="translate(-13.874 -18.748)"/><path class="d" d="M38.806,17.611a.806.806,0,1,1,.806-.806A.806.806,0,0,1,38.806,17.611ZM38.806,16.806Z" transform="translate(-23.094 -12.777)"/><path class="e" d="M30.806,17.611a.806.806,0,1,1,.806-.806A.806.806,0,0,1,30.806,17.611ZM30.806,16.806Z" transform="translate(-18.317 -12.777)"/><path class="f" d="M22.806,17.611a.806.806,0,1,1,.806-.806A.806.806,0,0,1,22.806,17.611ZM22.806,16.806Z" transform="translate(-13.54 -12.777)"/><path class="d" d="M15.913,49.965a.4.4,0,0,1-.4-.4,1.209,1.209,0,0,1,.274-.786.447.447,0,0,0,.121-.314.439.439,0,0,0-.121-.314,1.265,1.265,0,0,1,0-1.571.447.447,0,0,0,.121-.314.4.4,0,1,1,.806,0,1.209,1.209,0,0,1-.274.806.467.467,0,0,0,0,.628,1.286,1.286,0,0,1,0,1.587.455.455,0,0,0-.121.318A.4.4,0,0,1,15.913,49.965Z" transform="translate(-9.664 -30.608)"/><path class="d" d="M25.913,49.965a.4.4,0,0,1-.4-.4,1.209,1.209,0,0,1,.274-.786.447.447,0,0,0,.121-.314.439.439,0,0,0-.121-.314,1.265,1.265,0,0,1,0-1.571.447.447,0,0,0,.121-.314.4.4,0,1,1,.806,0,1.209,1.209,0,0,1-.274.806.467.467,0,0,0,0,.628,1.286,1.286,0,0,1,0,1.587.455.455,0,0,0-.121.318A.4.4,0,0,1,25.913,49.965Z" transform="translate(-15.636 -30.608)"/><path class="d" d="M35.913,49.965a.4.4,0,0,1-.4-.4,1.209,1.209,0,0,1,.274-.786.447.447,0,0,0,.121-.314.439.439,0,0,0-.121-.314,1.265,1.265,0,0,1,0-1.571.447.447,0,0,0,.121-.314.4.4,0,0,1,.806,0,1.209,1.209,0,0,1-.274.806.467.467,0,0,0,0,.628,1.286,1.286,0,0,1,0,1.587.455.455,0,0,0-.121.318A.4.4,0,0,1,35.913,49.965Z" transform="translate(-21.607 -30.608)"/><path class="d" d="M45.913,49.965a.4.4,0,0,1-.4-.4,1.209,1.209,0,0,1,.274-.786.447.447,0,0,0,.121-.314.439.439,0,0,0-.121-.314,1.265,1.265,0,0,1,0-1.571.447.447,0,0,0,.121-.314.4.4,0,1,1,.806,0,1.209,1.209,0,0,1-.274.806.467.467,0,0,0,0,.628,1.286,1.286,0,0,1,0,1.587.455.455,0,0,0-.121.318A.4.4,0,0,1,45.913,49.965Z" transform="translate(-27.578 -30.608)"/><path class="g" d="M13.4,8.806h.4a.4.4,0,0,0,0-.806h-.4a.4.4,0,0,0,0,.806Z" transform="translate(-8.166 -8)"/><path class="g" d="M23.963,8H8.252a.4.4,0,0,0,0,.806H23.963a1.209,1.209,0,0,1,1.209,1.209v9.669a1.209,1.209,0,0,1-1.209,1.209h-2.53l-1.1-3.316a1.265,1.265,0,0,0-1.273-.713H7.514a1.237,1.237,0,0,0-1.277.806l-.725,3.223h-2.5a1.209,1.209,0,0,1-1.209-1.209V10.014A1.209,1.209,0,0,1,3.014,8.806H4.626a.4.4,0,0,0,0-.806H3.014A2.014,2.014,0,0,0,1,10.014v9.669A2.014,2.014,0,0,0,3.014,21.7H23.963a2.014,2.014,0,0,0,2.014-2.014V10.014A2.014,2.014,0,0,0,23.963,8ZM6.338,20.892l.681-3.042a.6.6,0,0,1,.5-.181h11.55a.608.608,0,0,1,.5.181l1.019,3.042Z" transform="translate(-1 -8)"/><path class="c" d="M22.56,26.4a.4.4,0,0,0,.4.4h6.8a.4.4,0,1,0,0-.806h-6.8A.4.4,0,0,0,22.56,26.4Z" transform="translate(-13.874 -18.748)"/><circle class="h" cx="0.806" cy="0.806" r="0.806" transform="translate(14.906 3.203)"/><circle class="h" cx="0.806" cy="0.806" r="0.806" transform="translate(11.683 3.203)"/><circle class="h" cx="0.806" cy="0.806" r="0.806" transform="translate(8.46 3.203)"/><path class="c" d="M16.71,46.263a.4.4,0,0,0-.806,0,.447.447,0,0,1-.121.314,1.265,1.265,0,0,0,0,1.571.439.439,0,0,1,.121.314.447.447,0,0,1-.121.314,1.209,1.209,0,0,0-.274.786.4.4,0,1,0,.806,0,.455.455,0,0,1,.121-.318,1.286,1.286,0,0,0,0-1.587.467.467,0,0,1,0-.628A1.209,1.209,0,0,0,16.71,46.263Z" transform="translate(-9.664 -30.608)"/><path class="c" d="M26.71,46.263a.4.4,0,0,0-.806,0,.447.447,0,0,1-.121.314,1.265,1.265,0,0,0,0,1.571.439.439,0,0,1,.121.314.447.447,0,0,1-.121.314,1.209,1.209,0,0,0-.274.786.4.4,0,1,0,.806,0,.455.455,0,0,1,.121-.318,1.286,1.286,0,0,0,0-1.587.467.467,0,0,1,0-.628A1.209,1.209,0,0,0,26.71,46.263Z" transform="translate(-15.636 -30.608)"/><path class="c" d="M36.71,46.263a.4.4,0,0,0-.806,0,.447.447,0,0,1-.121.314,1.265,1.265,0,0,0,0,1.571.439.439,0,0,1,.121.314.447.447,0,0,1-.121.314,1.209,1.209,0,0,0-.274.786.4.4,0,1,0,.806,0,.455.455,0,0,1,.121-.318,1.286,1.286,0,0,0,0-1.587.467.467,0,0,1,0-.628A1.209,1.209,0,0,0,36.71,46.263Z" transform="translate(-21.607 -30.608)"/><path class="c" d="M46.71,46.263a.4.4,0,0,0-.806,0,.447.447,0,0,1-.121.314,1.265,1.265,0,0,0,0,1.571.439.439,0,0,1,.121.314.447.447,0,0,1-.121.314,1.209,1.209,0,0,0-.274.786.4.4,0,1,0,.806,0,.455.455,0,0,1,.121-.318,1.286,1.286,0,0,0,0-1.587.467.467,0,0,1,0-.628,1.209,1.209,0,0,0,.274-.765Z" transform="translate(-27.578 -30.608)"/></svg>