<svg xmlns="http://www.w3.org/2000/svg" width="20.366" height="19.687" viewBox="0 0 20.366 19.687"><defs><style>.a{fill:#647499;}.b{fill:#ccd3eb;}.c{fill:#f5f7ff;}.d{fill:#baa68b;}.e{fill:#96a1c3;}.f{fill:#033c59;}</style></defs><path class="a" d="M10.715,53v1.7a.679.679,0,0,1-.679.679H8.679A.679.679,0,0,1,8,54.7V53Z" transform="translate(-6.303 -36.028)"/><path class="b" d="M23.008,37v4.752a.679.679,0,0,1-.679.679H4.679A.679.679,0,0,1,4,41.752V37Z" transform="translate(-3.661 -25.459)"/><path class="c" d="M26.008,34v5.431H9.99A2.994,2.994,0,0,1,7,36.441V34Z" transform="translate(-5.642 -23.478)"/><path class="b" d="M23.008,27.358v2.376H4V27.358A1.358,1.358,0,0,1,5.358,26H21.65A1.358,1.358,0,0,1,23.008,27.358Z" transform="translate(-3.661 -18.193)"/><path class="d" d="M23.972,5.358v6.11h-1.7V9.431a.679.679,0,0,0-.679-.679H18.88a.679.679,0,0,0-.679.679v2.037H12.77V9.431a.679.679,0,0,0-.679-.679H9.376a.679.679,0,0,0-.679.679v2.037H7V5.358A1.358,1.358,0,0,1,8.358,4H22.614A1.358,1.358,0,0,1,23.972,5.358Z" transform="translate(-5.642 -3.661)"/><path class="c" d="M44.073,18.679v2.037H40V18.679A.679.679,0,0,1,40.679,18h2.715A.679.679,0,0,1,44.073,18.679Z" transform="translate(-27.441 -12.909)"/><path class="a" d="M50.715,53v1.7a.679.679,0,0,1-.679.679H48.679A.679.679,0,0,1,48,54.7V53Z" transform="translate(-32.726 -36.028)"/><path class="e" d="M11.7,53v1.7H10.679A.679.679,0,0,1,10,54.018V53Z" transform="translate(-7.624 -36.028)"/><path class="e" d="M51.7,53v1.7H50.679A.679.679,0,0,1,50,54.018V53Z" transform="translate(-34.047 -36.028)"/><path class="c" d="M16.073,18.679v2.037H12V18.679A.679.679,0,0,1,12.679,18h2.715A.679.679,0,0,1,16.073,18.679Z" transform="translate(-8.945 -12.909)"/><path class="f" d="M21.669,10.61V4.7a1.7,1.7,0,0,0-1.7-1.7H17.6a.339.339,0,0,0,0,.679h2.376A1.018,1.018,0,0,1,20.99,4.7v5.77H19.972V8.77a1.018,1.018,0,0,0-1.018-1.018H16.238A1.018,1.018,0,0,0,15.22,8.77v1.7H10.467V8.77A1.018,1.018,0,0,0,9.449,7.752H6.734A1.018,1.018,0,0,0,5.715,8.77v1.7H4.7V4.7A1.018,1.018,0,0,1,5.715,3.679h8.825a.339.339,0,0,0,0-.679H5.715a1.7,1.7,0,0,0-1.7,1.7V10.61A1.7,1.7,0,0,0,3,12.165v7.128a1.018,1.018,0,0,0,1.018,1.018h.339v1.358a1.018,1.018,0,0,0,1.018,1.018H6.734a1.018,1.018,0,0,0,1.018-1.018V20.311H17.935v1.358a1.018,1.018,0,0,0,1.018,1.018h1.358a1.018,1.018,0,0,0,1.018-1.018V20.311h.339a1.018,1.018,0,0,0,1.018-1.018V12.165a1.7,1.7,0,0,0-1.018-1.555ZM15.9,8.77a.339.339,0,0,1,.339-.339h2.715a.339.339,0,0,1,.339.339v1.7H15.9Zm-9.5,0a.339.339,0,0,1,.339-.339H9.449a.339.339,0,0,1,.339.339v1.7H6.394ZM3.679,12.165A1.018,1.018,0,0,1,4.7,11.146H20.99a1.018,1.018,0,0,1,1.018,1.018V14.2H3.679Zm3.394,9.5a.339.339,0,0,1-.339.339H5.376a.339.339,0,0,1-.339-.339V20.311H7.073Zm13.577,0a.339.339,0,0,1-.339.339H18.953a.339.339,0,0,1-.339-.339V20.311H20.65Zm1.358-2.376a.339.339,0,0,1-.339.339H4.018a.339.339,0,0,1-.339-.339V14.88H22.008Z" transform="translate(-3 -3)"/><path class="f" d="M40.339,3.679h.339a.339.339,0,0,0,0-.679h-.339a.339.339,0,1,0,0,.679Z" transform="translate(-27.441 -3)"/></svg>