<svg xmlns="http://www.w3.org/2000/svg" width="49" height="49.222" viewBox="0 0 49 49.222"><defs><style>.a{fill:#263238;}.b{fill:#baa68b;}</style></defs><path class="a" d="M34.178,36.426l.083-.167-1.414-.707-.083.168a1.767,1.767,0,0,1-3.161,0l-.083-.167-1.414.707.083.167a3.348,3.348,0,0,0,5.989,0Z" transform="translate(-6.684 -8.023)"/><path class="a" d="M46.048,26.113A3.957,3.957,0,0,0,42.1,30.065a10.484,10.484,0,0,0,.541,3.328l.173.519-3.522,5.636H29.3L28.8,37.026a6.35,6.35,0,0,0,2.554-3.01h.466a3.164,3.164,0,0,0,3.161-3.161,3.126,3.126,0,0,0-.644-1.891l.289-.868A6.91,6.91,0,0,0,28.073,19H22.926a6.91,6.91,0,0,0-6.555,9.1l.289.868a3.126,3.126,0,0,0-.644,1.891,3.164,3.164,0,0,0,3.161,3.161h.465A6.347,6.347,0,0,0,22.2,37.025l-.505,2.523H11.712L8.19,33.913l.173-.518a10.494,10.494,0,0,0,.541-3.33,3.952,3.952,0,1,0-7.9,0v.925a6.141,6.141,0,0,0,1.679,4.237l2.587,7.761a7.114,7.114,0,0,0,6.1,4.834l3.856.351v5.6H35.774v-5.6l3.857-.351a7.114,7.114,0,0,0,6.1-4.834l2.587-7.761A6.144,6.144,0,0,0,50,30.99v-.925A3.956,3.956,0,0,0,46.048,26.113ZM31.823,32.435h-.055a6.36,6.36,0,0,0,.055-.79V29.274a1.581,1.581,0,1,1,0,3.161Zm-8.9-11.855h5.147A5.33,5.33,0,0,1,33.13,27.6l-.112.337a3.136,3.136,0,0,0-1.195-.239h-.03a3.465,3.465,0,0,0-.47-1.468,3.138,3.138,0,0,0,.5-1.693H30.242a1.582,1.582,0,0,1-1.581,1.581h-2a1.163,1.163,0,0,1-.52-2.2l.5-.25-.707-1.414-.5.251a2.728,2.728,0,0,0-1.517,2.454c0,.049.012.095.014.144a8.338,8.338,0,0,1-4.073,2.6h-.684a3.15,3.15,0,0,0-1.195.238L17.87,27.6a5.33,5.33,0,0,1,5.056-7.015ZM19.177,32.435a1.581,1.581,0,0,1,0-3.161v2.371a6.36,6.36,0,0,0,.055.79Zm1.581-.79V29.069A10.191,10.191,0,0,0,24.6,26.733a2.727,2.727,0,0,0,2.068.961h2a3.117,3.117,0,0,0,1.449-.368,1.9,1.9,0,0,1,.132.7v3.624a4.742,4.742,0,1,1-9.484,0ZM25.5,37.968a6.29,6.29,0,0,0,1.827-.272l.543,2.716a2.371,2.371,0,0,1-4.74,0l.543-2.716A6.29,6.29,0,0,0,25.5,37.968ZM6.765,42.488l-2.7-8.109-.132-.132A4.575,4.575,0,0,1,2.581,30.99v-.925a2.371,2.371,0,1,1,4.742,0,8.922,8.922,0,0,1-.459,2.829L6.455,34.12l4,6.406-.59,5.309A5.529,5.529,0,0,1,6.765,42.488Zm29.351,4.066.408-1.224-1.5-.5-.831,2.493v4.87H16.806v-4.87l-.831-2.493-1.5.5.408,1.224-3.372-.307c-.033,0-.065-.013-.1-.016l.567-5.1h9.647a3.952,3.952,0,0,0,7.744,0h9.647l.567,5.1c-.033,0-.064.013-.1.016Zm12.3-15.565a4.577,4.577,0,0,1-1.349,3.258l-.132.132-2.7,8.109a5.528,5.528,0,0,1-3.1,3.345l-.59-5.309,4-6.406-.409-1.226a8.906,8.906,0,0,1-.459-2.829,2.371,2.371,0,1,1,4.742,0Z" transform="translate(-1 -4.552)"/><circle class="a" cx="0.79" cy="0.79" r="0.79" transform="translate(21.339 24.722)"/><circle class="a" cx="0.79" cy="0.79" r="0.79" transform="translate(26.081 24.722)"/><path class="b" d="M47.242,20.9a3.161,3.161,0,1,1-6.323,0,1.581,1.581,0,0,1,3.161,0h1.581a3.161,3.161,0,0,0-6.323,0,4.742,4.742,0,0,0,9.484,0,7.912,7.912,0,0,0-7.9-7.9H18v1.581H40.919A6.33,6.33,0,0,1,47.242,20.9Z" transform="translate(-4.565 -3.294)"/><path class="b" d="M39.339,4.952A3.956,3.956,0,0,0,35.387,1a2.371,2.371,0,0,0,0,4.742h.79V4.161h-.79a.79.79,0,1,1,0-1.581,2.371,2.371,0,0,1,0,4.742H18V8.9H35.387A3.956,3.956,0,0,0,39.339,4.952Z" transform="translate(-4.565 -0.778)"/><path class="b" d="M6.84,17.88l4.434.806V14.7A7.126,7.126,0,0,0,7.1,8.222L1,5.447v5.434A7.109,7.109,0,0,0,6.84,17.88ZM2.581,7.9,6.45,9.661A5.543,5.543,0,0,1,9.694,14.7v2.094l-2.57-.467a5.529,5.529,0,0,1-4.543-5.443Z" transform="translate(-1 -1.71)"/><path class="b" d="M55.9,3.775V.719L51.591,1.8A4.736,4.736,0,0,0,48,6.4V8.949l3.749-.469A4.749,4.749,0,0,0,55.9,3.775ZM49.581,7.159V6.4a3.157,3.157,0,0,1,2.395-3.066l2.347-.587V3.775a3.166,3.166,0,0,1-2.769,3.137Z" transform="translate(-10.855 -0.719)"/><path class="b" d="M59.371,11H57v2.371a2.374,2.374,0,0,0,2.371,2.371h2.371V13.371A2.374,2.374,0,0,0,59.371,11Zm.79,3.161h-.79a.792.792,0,0,1-.79-.79v-.79h.79a.792.792,0,0,1,.79.79Z" transform="translate(-12.742 -2.875)"/><path class="a" d="M12,26.371v2.371h2.371a2.374,2.374,0,0,0,2.371-2.371V24H14.371A2.374,2.374,0,0,0,12,26.371Zm1.581,0a.792.792,0,0,1,.79-.79h.79v.79a.792.792,0,0,1-.79.79h-.79Z" transform="translate(-3.306 -5.6)"/></svg>