<svg xmlns="http://www.w3.org/2000/svg" width="18.667" height="16" viewBox="0 0 18.667 16"><defs><style>.a{fill:#baa78b;}</style></defs><g transform="translate(0)"><g transform="translate(0)"><path class="a" d="M9.706,1.859A5.616,5.616,0,0,1,11.373.512,4.408,4.408,0,0,1,13.415,0a5.17,5.17,0,0,1,2.043.419,5.283,5.283,0,0,1,1.667,1.143,5.385,5.385,0,0,1,0,7.543c-.474.483-7.164,6.629-7.792,6.9-.628-.267-7.317-6.413-7.793-6.9a5.385,5.385,0,0,1,0-7.543A5.279,5.279,0,0,1,3.21.419,5.166,5.166,0,0,1,5.252,0,4.42,4.42,0,0,1,7.293.511,5.632,5.632,0,0,1,8.962,1.857C9.442,2.422,9.226,2.423,9.706,1.859Z" transform="translate(0 0)"/></g></g></svg>