<svg xmlns="http://www.w3.org/2000/svg" width="22.66" height="20.995" viewBox="0 0 22.66 20.995"><defs><style>.a{fill:#fff;}</style></defs><path class="a" d="M10.9,2.917a1.253,1.253,0,0,1,1.638,0L17.736,7.4v9.939A1.253,1.253,0,0,1,16.483,18.6H6.961a1.253,1.253,0,0,1-1.253-1.253V13.584A2.506,2.506,0,0,0,3.2,11.079v6.264A3.759,3.759,0,0,0,6.961,21.1h9.522a3.759,3.759,0,0,0,3.759-3.759V9.568l.739.638a1.253,1.253,0,0,0,1.638-1.9L14.179,1.021a3.759,3.759,0,0,0-4.913,0L.826,8.309a1.253,1.253,0,1,0,1.638,1.9Z" transform="translate(-0.392 -0.107)"/></svg>