<svg xmlns="http://www.w3.org/2000/svg" width="35.803" height="30.66" viewBox="0 0 35.803 30.66"><defs><style>.a{fill:#263238;}.b{fill:#baa68b;}</style></defs><g transform="translate(-14.44 -49.14)"><g transform="translate(14.44 49.14)"><path class="a" d="M44.608,65.275l2.1,1.618,3.53-3.865-6.118-4.71V49.14H38.013v4.481l-5.672-4.363L14.44,63.029l3.53,3.865,2.1-1.618V78.318H14.481V79.8H50.2V78.318H44.608ZM39.495,50.622h3.147v6.56L39.5,54.762ZM16.622,63.22l15.72-12.09L48.06,63.22l-1.524,1.668-14.2-10.92-14.2,10.92Zm4.934,15.1V64.138l10.786-8.3,10.785,8.3v14.18Z" transform="translate(-14.44 -49.14)"/><path class="b" d="M196.105,235.187a3.807,3.807,0,1,0-7.613,0v.773H187.2v8.627h10.2V235.96h-1.292Zm-6.131,0a2.325,2.325,0,1,1,4.649,0v.773h-4.649Zm5.94,7.918h-7.233v-5.663h7.233Z" transform="translate(-174.397 -217.875)"/><rect class="b" width="1.482" height="2.041" transform="translate(17.16 21.417)"/></g></g></svg>