<svg xmlns="http://www.w3.org/2000/svg" width="32" height="32" viewBox="0 0 32 32"><defs><style>.a{fill:rgba(0,0,0,0);}.b{fill:none;stroke:#baa68b;stroke-width:2px;}</style></defs><g transform="translate(0.35)"><rect class="a" width="32" height="32" transform="translate(-0.35)"/><path class="b" d="M23,4.5A4.481,4.481,0,0,1,27.5,9V23A4.481,4.481,0,0,1,23,27.5H9A4.481,4.481,0,0,1,4.5,23V9A4.481,4.481,0,0,1,9,4.5ZM16,9.8A6.2,6.2,0,1,0,22.2,16,6.105,6.105,0,0,0,16,9.8Zm0,1.4A4.8,4.8,0,1,1,11.2,16,4.867,4.867,0,0,1,16,11.2Zm7-3.7A1.5,1.5,0,1,0,24.5,9,1.538,1.538,0,0,0,23,7.5Z"/></g></svg>