<svg xmlns="http://www.w3.org/2000/svg" width="34.677" height="40.047" viewBox="0 0 34.677 40.047"><defs><style>.a{fill:none;}.a,.b{stroke:#263238;stroke-linecap:round;stroke-linejoin:round;stroke-miterlimit:10;}.b{fill:#baa68b;}</style></defs><g transform="translate(-2.284 -3.61)"><circle class="a" cx="6.165" cy="6.165" r="6.165" transform="translate(13.358 4.11)"/><path class="b" d="M29.063,48.311H25.638A5.175,5.175,0,0,1,20.5,43.173V39.2H34.2v3.973A5.131,5.131,0,0,1,29.063,48.311Z" transform="translate(-7.827 -12.689)"/><path class="a" d="M36.083,42.2m0,1.918A3.07,3.07,0,0,1,33,47.2" transform="translate(-11.764 -13.634)"/><g transform="translate(5.823 26.511)"><path class="a" d="M17.35,43.173V39.2A13.674,13.674,0,0,0,10.5,51.051v2.055a2.74,2.74,0,0,0,5.48,0V51.051a8.479,8.479,0,0,1,1.987-5.412A5.7,5.7,0,0,1,17.35,43.173Z" transform="translate(-10.5 -39.2)"/><path class="a" d="M40.217,39.2v3.973a4.882,4.882,0,0,1-.617,2.466,8.2,8.2,0,0,1,1.987,5.412v2.055a2.74,2.74,0,0,0,5.48,0V51.051A13.674,13.674,0,0,0,40.217,39.2Z" transform="translate(-19.666 -39.2)"/></g><path class="a" d="M39.248,20.263a2.709,2.709,0,0,0-3.7-1.028l-.617.343a24.757,24.757,0,0,1-24.113,0l-.685-.343a2.715,2.715,0,1,0-2.672,4.727l.617.411a29.731,29.731,0,0,0,7.878,3.014v9.385a5.175,5.175,0,0,0,5.138,5.138H24.52a5.175,5.175,0,0,0,5.138-5.138V27.387a29.731,29.731,0,0,0,7.878-3.014l.617-.343A2.736,2.736,0,0,0,39.248,20.263Z" transform="translate(-3.284 -6.288)"/><path class="a" d="M26.1,16.5a3.093,3.093,0,0,0,6.028,0Z" transform="translate(-9.591 -5.54)"/></g></svg>