<svg xmlns="http://www.w3.org/2000/svg" width="268.669" height="200" viewBox="0 0 268.669 200"><defs><style>.a,.b{fill:#baa68b;}.b{fill-rule:evenodd;}.c{fill:#fff;}</style></defs><g transform="translate(0.081)"><rect class="a" width="2.875" height="142.421" transform="translate(86.027)"/><rect class="a" width="86.615" height="2.875" transform="translate(86.027)"/><rect class="a" width="2.875" height="47.056" transform="translate(172.096)"/><rect class="a" width="86.615" height="2.875" transform="translate(86.027 141.243)"/><rect class="a" width="2.875" height="45.805" transform="translate(172.096 98.277)"/><rect class="a" width="2.875" height="36.646" transform="translate(93.165 7.535)"/><rect class="a" width="2.875" height="40.104" transform="translate(165.404 6.965)"/><rect class="a" width="2.875" height="36.993" transform="translate(165.404 98.339)"/><path class="b" d="M381.91,217.615V214.74h26.657v2.875Zm9.914,6.952V221.7h16.8l6.122-2.045-6.122-2.045V214.74l10.435,3.482L429.5,214.74h25.777v2.875H429.5l-6.135,2.045L429.5,221.7v2.875L419.064,221.1l-10.435,3.47Z" transform="translate(-288.745 -207.775)"/><rect class="a" width="2.875" height="33.151" transform="translate(158.303 13.93)"/><rect class="a" width="2.875" height="30.189" transform="translate(100.266 13.93)"/><rect class="a" width="2.875" height="32.011" transform="translate(158.303 98.339)"/><rect class="a" width="2.875" height="25.753" transform="translate(93.165 63.663)"/><rect class="a" width="2.875" height="25.629" transform="translate(100.266 63.774)"/><path class="b" d="M81.433,45.631l3.693-9.914-2.689-1L80.12,40.946,77.889,34.7,75.15,35.853l3.644,9.778-3.644,9.79,2.665,1.066,2.305-6.172,2.317,6.246,2.689-1Z" transform="translate(18.003 8.304)"/><path class="b" d="M80.117,86.628,77.812,92.8,75.16,91.7l3.631-9.753L75.16,72.177l2.726-.558,2.231,5.639,2.144-5.688,2.863.459-3.693,9.914,3.693,9.927-2.689,1Z" transform="translate(18.005 17.127)"/><rect class="a" width="2.875" height="28.157" transform="translate(93.165 108.761)"/><rect class="a" width="2.875" height="19.271" transform="translate(100.266 108.947)"/><rect class="a" width="19.023" height="2.875" transform="translate(140.705 13.93)"/><path class="b" d="M122.687,109.812h27.587v2.875H122.7v.012l-10.447-3.482L101.817,112.7v-.012H75.16v-2.875h26.657v.012l6.135-2.045-6.11-2.045v.012H82.261v-2.875h19.556v-.012l10.435,3.482L122.7,102.86v.012h19.37v2.875h-19.4v-.012l-6.11,2.045Z" transform="translate(18.005 24.615)"/><rect class="a" width="2.875" height="87.433" transform="translate(137.904 28.417)"/><rect class="a" width="2.875" height="87.594" transform="translate(131.546 28.368)"/><rect class="a" width="6.544" height="2.875" transform="translate(127.878 28.343)"/><rect class="a" width="9.109" height="2.875" transform="translate(131.546 68.409)"/><rect class="a" width="2.875" height="87.619" transform="translate(122.425 28.343)"/><rect class="a" width="6.544" height="2.875" transform="translate(127.878 113.074)"/><rect class="a" width="6.605" height="2.875" transform="translate(137.904 112.975)"/><rect class="a" width="6.816" height="2.875" transform="translate(137.904 28.343)"/><path class="b" d="M401.136,265.321a1.115,1.115,0,1,1-1.115,1.115,1.115,1.115,0,0,1,1.115-1.115m0-1.661a2.764,2.764,0,1,1-1.967.809A2.776,2.776,0,0,1,401.136,263.66Z" transform="translate(-284.808 -196.068)"/><path class="b" d="M425.832,265.321a1.066,1.066,0,1,1-1.066,1.053,1.054,1.054,0,0,1,1.066-1.053m0-1.6a1.1,1.1,0,1,1,0-.062Z" transform="translate(-278.869 -196.068)"/><path class="c" d="M557.269,364.519h8.824l-5.527-12.5-5.428,12.579Zm12.74,11.042v-.074a1.1,1.1,0,0,0,.062-.3v-.347a6.194,6.194,0,0,0-.174-1.351,11.688,11.688,0,0,0-.632-1.847l-2.392-5.354H554.382l-2.268,5.205-.62,1.586a4.873,4.873,0,0,0-.335,1.76,2.06,2.06,0,0,0,0,.421.746.746,0,0,0,.074.223v.074h-4.015v-.074a6.782,6.782,0,0,0,.892-1.326c.347-.632.744-1.438,1.153-2.392l11.278-25.009h1.574l10.7,24.043c.248.57.508,1.115.768,1.648s.521,1,.768,1.425l.62,1.066c.186.285.31.471.372.545v.074ZM543.984,351.68l-.174.074a11.884,11.884,0,0,0-3.718-2.268,12.96,12.96,0,0,0-4.734-.843,12.787,12.787,0,0,0-4.548.781,9.915,9.915,0,0,0-3.544,2.256,10.1,10.1,0,0,0-2.318,3.619,13.631,13.631,0,0,0-.83,4.883,19.037,19.037,0,0,0,.793,5.614,13.19,13.19,0,0,0,2.342,4.523,10.905,10.905,0,0,0,3.891,3,12.8,12.8,0,0,0,5.44,1.091,11.583,11.583,0,0,0,2.243-.235,10.982,10.982,0,0,0,2.156-.707,11.62,11.62,0,0,0,1.946-1.115,9.592,9.592,0,0,0,1.661-1.512l.211.136-1.574,4.015a16.227,16.227,0,0,1-3.259.88,20.458,20.458,0,0,1-3.582.31,20.065,20.065,0,0,1-6.667-1.053,15.417,15.417,0,0,1-5.193-2.987,13.311,13.311,0,0,1-3.383-4.635A14.55,14.55,0,0,1,519.9,361.5a14.23,14.23,0,0,1,.483-3.718,15.116,15.116,0,0,1,1.4-3.445,14.706,14.706,0,0,1,2.293-3,14.338,14.338,0,0,1,3.1-2.367,15.8,15.8,0,0,1,3.842-1.562,16.946,16.946,0,0,1,4.523-.57A20.631,20.631,0,0,1,542.6,348Zm-53.29-4.338,20.275,21.576v-16.83c0-.83-.074-1.549-.124-2.169s-.112-1.115-.186-1.524-.149-.744-.223-1.029v-.074h3.495v.074a9.922,9.922,0,0,0-.211,1.029,13.125,13.125,0,0,0-.173,1.524c0,.62-.1,1.338-.124,2.169s0,1.809,0,2.925v20.895h-.694l-20.312-21.539v16.384c0,.83.062,1.537.112,2.144s.112,1.115.186,1.524a7.239,7.239,0,0,0,.211,1.016v.124H489.43v-.074c.074-.273.149-.62.223-1.016s.124-.917.186-1.524.087-1.314.111-2.144,0-1.822,0-2.937V352.089a12.832,12.832,0,0,0-.111-2.169c-.112-.62-.124-1.115-.186-1.524a9.581,9.581,0,0,0-.223-1.029v-.074Zm-23.472,17.226h8.824l-5.527-12.5-5.428,12.579Zm12.765,10.993v-.074a.769.769,0,0,0,.062-.3c0-.124,0-.248,0-.347a5.53,5.53,0,0,0-.174-1.351,11.692,11.692,0,0,0-.632-1.847l-2.379-5.4H464.334l-2.256,5.205c-.2.483-.409,1.016-.632,1.586a4.868,4.868,0,0,0-.335,1.76,2.052,2.052,0,0,0,0,.421.746.746,0,0,0,.074.223v.124h-4.015v-.074a6.275,6.275,0,0,0,.892-1.326c.359-.632.744-1.438,1.165-2.392l11.278-25.009h1.562l10.7,24.043c.248.57.508,1.115.781,1.648s.508,1,.756,1.425l.62,1.066c.2.285.31.471.384.545v.074Zm-35.717-1.723c1.549,0,2.974-.074,4.276-.2s2.479-.285,3.408-.446,2.156-.409,3.086-.657l-.57,3.185H440.056v-.074a9,9,0,0,0,.236-1.016c0-.409.124-.917.174-1.524s.1-1.314.124-2.144,0-1.822,0-2.937V352.089a11.556,11.556,0,0,0-.124-2.169c-.124-.62-.112-1.115-.174-1.524a9.307,9.307,0,0,0-.236-1.029v-.074h4.722v.074c-.074.285-.149.62-.223,1.029a13.125,13.125,0,0,0-.174,1.524c0,.62-.087,1.338-.124,2.169s0,1.809,0,2.925Zm-24.414-13.756c.372,0,.706.062.991.074h.917a7.437,7.437,0,0,0,2.479-.384,5.068,5.068,0,0,0,1.871-1.153,5.156,5.156,0,0,0,1.239-1.921,7.67,7.67,0,0,0,.434-2.677,8.021,8.021,0,0,0-.322-2.33,5.1,5.1,0,0,0-.929-1.785,4.189,4.189,0,0,0-1.524-1.128,5.181,5.181,0,0,0-2.07-.4,8.574,8.574,0,0,0-1.314.062l-.954.136a4.575,4.575,0,0,0-.768.2Zm3.644,1.487a17.069,17.069,0,0,0-2.243.087c-.607.087-1.066.136-1.4.211v5.949c0,1.537,0,2.8.087,3.8s.124,1.809.211,2.479l1.5.174c.5,0,.9.074,1.239.074a7.436,7.436,0,0,0,5.379-1.636,6.692,6.692,0,0,0,1.7-5.044,7.075,7.075,0,0,0-.4-2.479,5.317,5.317,0,0,0-1.239-1.921,5.478,5.478,0,0,0-2.008-1.239,8.463,8.463,0,0,0-2.838-.459Zm-7.213-6.556v-2.925c0-.83-.062-1.549-.112-2.169s-.124-1.115-.186-1.524a9.286,9.286,0,0,0-.235-1.029v-.074h2.627a16.457,16.457,0,0,0,1.909-.149,30.533,30.533,0,0,1,3.123-.124,11.415,11.415,0,0,1,3.272.446,7.709,7.709,0,0,1,2.578,1.338,5.886,5.886,0,0,1,1.723,2.132,6.544,6.544,0,0,1,.62,2.888,7.437,7.437,0,0,1-.372,2.479,5.677,5.677,0,0,1-1.053,1.859,5.963,5.963,0,0,1-1.636,1.351,9.519,9.519,0,0,1-2.094.855,12.494,12.494,0,0,1,3.049.855,8.579,8.579,0,0,1,2.367,1.5,6.282,6.282,0,0,1,1.537,2.119,6.5,6.5,0,0,1,.545,2.677,7.324,7.324,0,0,1-2.739,6.2q-2.739,2.082-8.192,2.082H421.64l-1.6-.111-1.611-.112h-2.677V375.5a8.987,8.987,0,0,0,.235-1.016c.062-.409.136-.917.186-1.524s.087-1.314.112-2.144,0-1.822,0-2.937Zm-22.952,9.505h8.836l-5.527-12.5L391.2,364.594Zm12.74,11.042v-.074a1.107,1.107,0,0,0,.062-.3v-.347a6.193,6.193,0,0,0-.161-1.351,10.734,10.734,0,0,0-.644-1.847l-2.38-5.354H390.459l-2.268,5.205c-.2.483-.4,1.016-.632,1.586a4.858,4.858,0,0,0-.322,1.76,2.126,2.126,0,0,0,0,.421.681.681,0,0,0,.087.223v.074h-4.015v-.074a6.873,6.873,0,0,0,.88-1.326c.359-.632.744-1.438,1.165-2.392l11.278-25.009H398.2L408.888,370.8c.248.57.508,1.115.781,1.648s.521,1,.756,1.425.446.768.632,1.066a5.731,5.731,0,0,0,.372.545v.074Zm-27.909-23.72h-.446a4.525,4.525,0,0,0-.5-1.029,4.722,4.722,0,0,0-4.139-2.243,4.959,4.959,0,0,0-1.723.285,3.718,3.718,0,0,0-1.239.83,3.643,3.643,0,0,0-.768,1.239,5.055,5.055,0,0,0-.248,1.611,5.106,5.106,0,0,0,.793,2.714,16.408,16.408,0,0,0,2,2.54c.806.843,1.673,1.673,2.6,2.479a32.485,32.485,0,0,1,2.6,2.627,15.307,15.307,0,0,1,2,2.838,6.644,6.644,0,0,1,.793,3.2,8.078,8.078,0,0,1-.434,2.565,6.579,6.579,0,0,1-1.376,2.318,6.879,6.879,0,0,1-2.379,1.661,8.673,8.673,0,0,1-3.47.644,10.807,10.807,0,0,1-2.132-.211,14.6,14.6,0,0,1-1.871-.508,11.933,11.933,0,0,1-1.537-.657,10.8,10.8,0,0,1-1.1-.657l.446-4.35h.5a6.542,6.542,0,0,0,.706,1.76,6.383,6.383,0,0,0,1.239,1.487A5.963,5.963,0,0,0,370.11,374a5.206,5.206,0,0,0,2.033.384,5.107,5.107,0,0,0,1.8-.3,4.114,4.114,0,0,0,1.363-.855,3.569,3.569,0,0,0,.88-1.239,4.139,4.139,0,0,0,.31-1.636,5.813,5.813,0,0,0-.446-2.293,9.492,9.492,0,0,0-1.239-2,17.643,17.643,0,0,0-1.673-1.834l-1.908-1.772c-.657-.607-1.239-1.239-1.921-1.847a12.947,12.947,0,0,1-1.673-2.02,9.833,9.833,0,0,1-1.239-2.293,7.661,7.661,0,0,1-.458-2.714,6.27,6.27,0,0,1,.632-2.813,6.481,6.481,0,0,1,1.586-2.131,7.225,7.225,0,0,1,2.256-1.363,7.437,7.437,0,0,1,2.59-.471,9.233,9.233,0,0,1,1.822.161,10.851,10.851,0,0,1,1.487.372,9.652,9.652,0,0,1,1.14.434l.806.359Zm-34.143,12.728h8.836l-5.527-12.5L341.9,364.643Zm12.752,10.993v-.074a1.106,1.106,0,0,0,0-.3v-.347a6.194,6.194,0,0,0-.173-1.351,11.706,11.706,0,0,0-.632-1.847l-2.392-5.354H341.086l-2.268,5.205-.62,1.586a4.871,4.871,0,0,0-.335,1.76,1.435,1.435,0,0,0,0,.421.746.746,0,0,0,.074.223v.074h-4.015v-.074a6.78,6.78,0,0,0,.892-1.326c.347-.632.744-1.438,1.153-2.392l11.278-25.009h1.574l10.7,24.043c.248.57.508,1.115.768,1.648s.521,1,.768,1.425.434.768.62,1.066a5.72,5.72,0,0,0,.372.545v.074ZM330.75,351.68l-.174.074a11.882,11.882,0,0,0-3.718-2.268,12.96,12.96,0,0,0-4.734-.843,12.789,12.789,0,0,0-4.548.781,9.914,9.914,0,0,0-3.544,2.256,10.1,10.1,0,0,0-2.317,3.619,13.308,13.308,0,0,0-.83,4.883,19.035,19.035,0,0,0,.793,5.614,12.965,12.965,0,0,0,2.342,4.523,10.9,10.9,0,0,0,3.891,3,12.8,12.8,0,0,0,5.441,1.091,11.594,11.594,0,0,0,2.243-.236,10.983,10.983,0,0,0,2.156-.706,11.627,11.627,0,0,0,1.946-1.115,9.589,9.589,0,0,0,1.661-1.512l.211.136-1.574,4.015a16.227,16.227,0,0,1-3.259.88,20.458,20.458,0,0,1-3.582.31,20.064,20.064,0,0,1-6.667-1.053,15.416,15.416,0,0,1-5.193-2.987,13.31,13.31,0,0,1-3.383-4.635,14.549,14.549,0,0,1-1.239-6.011,14.225,14.225,0,0,1,.483-3.718,15.119,15.119,0,0,1,1.4-3.445,14.712,14.712,0,0,1,2.293-3,14.338,14.338,0,0,1,3.1-2.367,15.8,15.8,0,0,1,3.842-1.562,16.946,16.946,0,0,1,4.523-.57A20.633,20.633,0,0,1,329.362,348Z" transform="translate(-306.75 -176.182)"/><rect class="a" width="36.262" height="2.875" transform="translate(112.573 120.274)"/><rect class="a" width="2.875" height="101.784" transform="translate(107.033 21.353)"/><rect class="a" width="45.334" height="2.875" transform="translate(107.033 21.353)"/><rect class="a" width="2.875" height="25.901" transform="translate(150.842 21.353)"/><rect class="a" width="45.643" height="2.875" transform="translate(107.442 120.274)"/><rect class="a" width="2.875" height="24.65" transform="translate(150.842 98.5)"/><path class="b" d="M403.43,217.615V214.74L424.3,221.7v2.875l-20.87-6.965" transform="translate(-283.595 -207.775)"/></g></svg>