<svg xmlns="http://www.w3.org/2000/svg" width="26.667" height="20" viewBox="0 0 26.667 20"><defs><style>.a{fill:#baa68b;fill-rule:evenodd;}</style></defs><path class="a" d="M2.121,5.77A3.056,3.056,0,0,1,3.523,0H22.5a4.167,4.167,0,0,1,4.167,4.167V15.833A4.166,4.166,0,0,1,22.5,20H4.164A4.165,4.165,0,0,1,0,15.833V7.222A2.778,2.778,0,0,1,2.778,10v5.833a1.387,1.387,0,0,0,1.387,1.389H22.5a1.388,1.388,0,0,0,1.388-1.389V4.167A1.389,1.389,0,0,0,22.5,2.778H3.523a.251.251,0,0,0-.178.051.337.337,0,0,0-.084.347A.251.251,0,0,0,3.4,3.3l9.181,4.743a1.389,1.389,0,0,0,1.365-.051l4.7-2.894A1.389,1.389,0,1,1,20.1,7.466L15.4,10.36a4.167,4.167,0,0,1-4.1.153Z"/></svg>