<svg xmlns="http://www.w3.org/2000/svg" width="21.333" height="16" viewBox="0 0 21.333 16"><defs><style>.a{fill:#fff;fill-rule:evenodd;}</style></defs><path class="a" d="M1.7,4.616A2.444,2.444,0,0,1,2.819,0H18a3.333,3.333,0,0,1,3.333,3.333v9.333A3.333,3.333,0,0,1,18,16H3.332A3.332,3.332,0,0,1,0,12.667V5.778A2.222,2.222,0,0,1,2.222,8v4.667a1.11,1.11,0,0,0,1.109,1.111H18a1.111,1.111,0,0,0,1.11-1.111V3.333A1.111,1.111,0,0,0,18,2.222H2.819a.2.2,0,0,0-.142.041.269.269,0,0,0-.068.278.2.2,0,0,0,.108.1l7.345,3.795A1.111,1.111,0,0,0,11.154,6.4L14.916,4.08A1.111,1.111,0,1,1,16.08,5.973L12.318,8.288a3.333,3.333,0,0,1-3.277.123Z"/></svg>