<svg xmlns="http://www.w3.org/2000/svg" width="24.978" height="16.905" viewBox="0 0 24.978 16.905"><defs><style>.a{fill:#f5f7ff;}.b{fill:#647499;}.c{fill:#09001f;}.d{fill:#baa68b;}</style></defs><rect class="a" width="24.153" height="14.767" transform="translate(0.411 0.411)"/><rect class="b" width="13.965" height="9.868" transform="translate(3.731 2.86)"/><path class="c" d="M42.892,32.807H17.917V48.4h1.558A1.328,1.328,0,0,0,20.8,49.712h2.032A1.328,1.328,0,0,0,24.159,48.4H36.651a1.328,1.328,0,0,0,1.328,1.316h2.032A1.328,1.328,0,0,0,41.336,48.4h1.558ZM22.832,48.89H20.8a.5.5,0,0,1-.5-.495h3.038A.5.5,0,0,1,22.832,48.89Zm17.176,0H37.976a.5.5,0,0,1-.5-.495h3.04A.5.5,0,0,1,40.008,48.89Zm2.062-1.317H18.739V33.629H42.07Z" transform="translate(-17.917 -32.807)"/><path class="d" d="M89.67,58.644h2.347a.544.544,0,0,0,0-1.087H89.67a.544.544,0,0,0,0,1.087Z" transform="translate(-69.839 -50.85)"/><path class="d" d="M89.637,65.827h2.347a.544.544,0,1,0,0-1.087H89.637a.544.544,0,1,0,0,1.087Z" transform="translate(-69.806 -56.087)"/><path class="c" d="M44.954,41.846H30.167V52.537H44.954Zm-.822,9.868H30.989V42.668H44.131Z" transform="translate(-26.848 -39.397)"/><circle class="d" cx="1.339" cy="1.339" r="1.339" transform="translate(19.664 2.644)"/></svg>