<svg xmlns="http://www.w3.org/2000/svg" width="44.99" height="44.99" viewBox="0 0 44.99 44.99"><defs><style>.a{fill:#263238;}.b{fill:#baa68b;}</style></defs><path class="a" d="M27.248,41.495H19a3,3,0,0,1-3-3V19a3,3,0,0,1,3-3H38.5a3,3,0,0,1,3,3V31.747h-1.5V19a1.5,1.5,0,0,0-1.5-1.5H19A1.5,1.5,0,0,0,17.5,19V38.5a1.5,1.5,0,0,0,1.5,1.5h8.248Z" transform="translate(-16 -16)"/><path class="b" d="M69.249,67.5h-4.5a.75.75,0,0,1-.75-.75v-18a.75.75,0,0,1,.75-.75h9a6.749,6.749,0,0,1,0,13.5H70v5.249A.75.75,0,0,1,69.249,67.5ZM65.5,66h3V60.747a.75.75,0,0,1,.75-.75h4.5a5.249,5.249,0,0,0,0-10.5H65.5Zm8.248-9h-4.5a.75.75,0,0,1-.75-.75v-3a.75.75,0,0,1,.75-.75h4.5a2.25,2.25,0,0,1,0,4.5ZM70,55.5h3.749a.75.75,0,0,0,0-1.5H70Z" transform="translate(-59.501 -45.001)"/><path class="a" d="M147.023,212.217a3.286,3.286,0,0,0-2.238-.967l-3.066-9.2A3,3,0,0,0,138.872,200H121.12a3,3,0,0,0-2.846,2.051l-3.066,9.2A3.309,3.309,0,0,0,112,214.557v5.688a3,3,0,0,0,3,3h5.249v3h-4.5v-1.5h-1.5v1.5a1.5,1.5,0,0,0,1.5,1.5h4.5a1.5,1.5,0,0,0,1.5-1.5v-3h16.5v3a1.5,1.5,0,0,0,1.5,1.5h4.5a1.5,1.5,0,0,0,1.5-1.5V223.15a3,3,0,0,0,2.25-2.9v-5.688A3.288,3.288,0,0,0,147.023,212.217ZM121.12,201.5h17.752a1.5,1.5,0,0,1,1.423,1.025l.158.474H119.539l.158-.474a1.5,1.5,0,0,1,1.423-1.026Zm-2.081,3h21.914l2.25,6.749H116.79Zm25.2,21.745h-4.5v-3h4.5v3Zm2.25-6a1.5,1.5,0,0,1-1.5,1.5H115a1.5,1.5,0,0,1-1.5-1.5v-5.688a1.81,1.81,0,0,1,1.81-1.81h29.373a1.81,1.81,0,0,1,1.81,1.81Z" transform="translate(-103.002 -182.754)"/><path class="a" d="M147,352a3,3,0,1,0,3,3,3,3,0,0,0-3-3Zm0,4.5a1.5,1.5,0,1,1,1.5-1.5A1.5,1.5,0,0,1,147,356.5Z" transform="translate(-132.003 -320.507)"/><path class="a" d="M403,352a3,3,0,1,0,3,3A3,3,0,0,0,403,352Zm0,4.5a1.5,1.5,0,1,1,1.5-1.5A1.5,1.5,0,0,1,403,356.5Z" transform="translate(-364.008 -320.507)"/><rect class="a" width="15" height="2" transform="translate(19.422 31.77)"/><rect class="a" width="15" height="2" transform="translate(19.422 34.77)"/></svg>