<svg xmlns="http://www.w3.org/2000/svg" width="20.228" height="20.249" viewBox="0 0 20.228 20.249"><defs><style>.a{fill:#fff;fill-rule:evenodd;}</style></defs><g transform="translate(-0.031 -0.968)"><path class="a" d="M6.141,3.95A1.2,1.2,0,0,0,4.3,3.69L2.046,5.743A1.2,1.2,0,1,1,.426,3.961L2.685,1.907a3.613,3.613,0,0,1,5.508.78L9.527,4.856a3.614,3.614,0,0,1-.184,4.058A9.468,9.468,0,0,0,11.8,11.357a3.614,3.614,0,0,1,4.08-.118l2.722,1.75a3.613,3.613,0,0,1,.725,5.464L17.9,20.03a3.564,3.564,0,0,1-4.356.751,32.851,32.851,0,0,1-7.668-5.507A32.421,32.421,0,0,1,.28,7.438,2.506,2.506,0,0,1,3.6,8.387,26.813,26.813,0,0,0,7.576,13.57a30.482,30.482,0,0,0,7.126,5.1,1.156,1.156,0,0,0,1.41-.256l1.427-1.577a1.2,1.2,0,0,0-.242-1.821l-2.722-1.75a1.2,1.2,0,0,0-1.5.161l-.036.036a1.681,1.681,0,0,1-2.129.207A12.463,12.463,0,0,1,7.02,9.784a1.68,1.68,0,0,1,.215-2.116L7.3,7.6a1.2,1.2,0,0,0,.174-1.483Z" transform="translate(0)"/><path class="a" d="M24.5,2.2A1.2,1.2,0,0,1,25.7,1a7.227,7.227,0,0,1,7.227,7.227,1.2,1.2,0,0,1-2.409,0A4.818,4.818,0,0,0,25.7,3.409,1.2,1.2,0,0,1,24.5,2.2Z" transform="translate(-12.68 -0.017)"/></g></svg>