<svg xmlns="http://www.w3.org/2000/svg" width="51.025" height="51.397" viewBox="0 0 51.025 51.397"><defs><style>.a{fill:#263238;}.b{fill:#baa68b;}</style></defs><g transform="translate(-220 -3013.603)"><path d="M37.5,41.834a.886.886,0,0,0-.567,1.117,5.849,5.849,0,0,1,.2.939.886.886,0,0,0,.886.753h.133a.886.886,0,0,0,.744-1.01,7.417,7.417,0,0,0-.275-1.223.886.886,0,0,0-1.125-.576Z" transform="translate(212.513 3006.187)"/><circle cx="1.329" cy="1.329" r="1.329" transform="translate(240.639 3032.212)"/><circle cx="1.329" cy="1.329" r="1.329" transform="translate(234.436 3032.212)"/><path d="M27.886,21.772h.886a.886.886,0,1,0,0-1.772h-.886a.886.886,0,0,0,0,1.772Z" transform="translate(213.639 3008.667)"/><path d="M20.886,21.772h.886a.886.886,0,1,0,0-1.772h-.886a.886.886,0,0,0,0,1.772Z" transform="translate(214.436 3008.667)"/><path class="a" d="M34.415,45.129c.089-.195.195-.4.266-.6a.886.886,0,1,0-1.666-.6,6.886,6.886,0,0,1-.886,1.631c-.053.071-.106.151-.177.23L30.6,47.478a4.652,4.652,0,0,0-1.817-.576V37.065A4.723,4.723,0,0,0,30.6,36.33a6.841,6.841,0,0,1,1,.833A.887.887,0,0,0,32.856,35.9a8.268,8.268,0,0,0-1.028-.886,4.75,4.75,0,0,0,.8-2.658L32.43,29.7h.558a3.217,3.217,0,0,0,2.277-1.055,2.517,2.517,0,0,0,.647-1.905l-.275-3.766A3.048,3.048,0,0,0,32.324,20.4l-.771.044A7.63,7.63,0,0,0,24.127,15H21.575a7.63,7.63,0,0,0-7.417,5.45l-.815-.053a3.04,3.04,0,0,0-3.323,2.579l-.3,3.74a2.517,2.517,0,0,0,.647,1.905,3.208,3.208,0,0,0,2.26,1.055h.62l-.195,2.756a4.643,4.643,0,0,0,.762,2.543,8.277,8.277,0,0,0-3.234,5.078,8.374,8.374,0,0,0,.594,5.078H10.8A7.089,7.089,0,0,0,3.71,52.218a3.545,3.545,0,0,0,3.545,3.545H19.342a3.243,3.243,0,0,0,3.234-3.234,3.243,3.243,0,0,0,3.234,3.234H37.9a3.545,3.545,0,0,0,3.545-3.545,7.089,7.089,0,0,0-7.028-7.089Zm-2-22.96c.744-.044,1.409.381,1.453.93l.31,3.74a.824.824,0,0,1-.213.594,1.471,1.471,0,0,1-1.046.452h-.585l-.319-4.431a10.918,10.918,0,0,0-.089-1.329Zm-18.7,1.294L13.4,27.893h-.647a1.444,1.444,0,0,1-1.055-.487.824.824,0,0,1-.213-.594l.31-3.74c.044-.549.709-.975,1.444-.93h.541a9.668,9.668,0,0,0-.062,1.32ZM12.306,53.991H7.255a1.772,1.772,0,0,1-1.772-1.772A5.317,5.317,0,0,1,10.8,46.9h1.444l1.143,1.418a4.847,4.847,0,0,0-1.444,3.456v.753a3.243,3.243,0,0,0,.363,1.462ZM13.413,45.5a6.558,6.558,0,0,1,1.639-9.234,4.67,4.67,0,0,0,1.32.638v10a4.652,4.652,0,0,0-1.524.39L13.617,45.75A1.11,1.11,0,0,1,13.413,45.5ZM20.8,52.529a1.462,1.462,0,0,1-1.462,1.462H15.177a1.462,1.462,0,0,1-1.462-1.462v-.753a3.1,3.1,0,0,1,3.1-3.1H17.7a3.1,3.1,0,0,1,3.1,3.1Zm.886-3.545A4.874,4.874,0,0,0,18.146,46.9V37.154H21.69Zm0-13.6H17.756a2.924,2.924,0,0,1-2.933-2.871l.665-8.986c0-3.908,2.57-6.753,6.114-6.753h2.552c3.545,0,6.114,2.845,6.123,6.823l.629,8.862a2.933,2.933,0,0,1-2.96,2.924H23.462V32.723a2.02,2.02,0,0,0,1.772-1.48l.31-1.037a2.26,2.26,0,0,0-.31-1.994,1.95,1.95,0,0,0-1.568-.806h-2.18a1.95,1.95,0,0,0-1.577.806,2.242,2.242,0,0,0-.337,1.976l.346,1.046a2.02,2.02,0,0,0,1.772,1.489Zm.106-4.431c-.089,0-.177-.1-.213-.222l-.319-1.046a.461.461,0,0,1,.071-.408.186.186,0,0,1,.151-.1h2.18a.186.186,0,0,1,.151.1.461.461,0,0,1,.071.408l-.319,1.046a.237.237,0,0,1-.213.222Zm1.666,18.033V37.154h3.545V46.9a4.874,4.874,0,0,0-3.545,2.082Zm7.975,3.545a1.462,1.462,0,0,1-1.462,1.462H25.811a1.462,1.462,0,0,1-1.462-1.462v-.753a3.1,3.1,0,0,1,3.1-3.1h.886a3.1,3.1,0,0,1,3.1,3.1Zm6.46,1.462H32.847a3.243,3.243,0,0,0,.363-1.462v-.753a4.83,4.83,0,0,0-1.2-3.19L33.352,46.9h1a5.317,5.317,0,0,1,5.317,5.317A1.772,1.772,0,0,1,37.9,53.991Z" transform="translate(216.29 3009.237)"/><path class="b" d="M49.038,3a9.748,9.748,0,1,0,9.748,9.748A9.748,9.748,0,0,0,49.038,3Zm0,17.723a7.975,7.975,0,1,1,7.975-7.975A7.975,7.975,0,0,1,49.038,20.723Z" transform="translate(212.24 3010.603)"/><path class="b" d="M53.022,10.257l-4.688,4.7L46.3,12.915a.887.887,0,1,0-1.249,1.258L47.7,16.832a.886.886,0,0,0,1.249,0l5.317-5.317a.887.887,0,1,0-1.249-1.258Z" transform="translate(211.614 3009.806)"/></g></svg>