<svg xmlns="http://www.w3.org/2000/svg" width="20.332" height="20.332" viewBox="0 0 20.332 20.332"><defs><style>.a{fill:#baa68b;}.b{fill:#ccd3eb;}.c{fill:#f5f7ff;}.d{fill:#54a5ff;}.e{fill:#033c59;}</style></defs><path class="a" d="M27.924,52.207H20.71L22.154,48H26.48l1.083,3.155Z" transform="translate(-14.502 -32.225)"/><path class="a" d="M31.95,51.155h-2.1A2.384,2.384,0,0,1,27.592,48h3.274Z" transform="translate(-18.888 -32.225)"/><path class="a" d="M21.527,4H6.1A2.1,2.1,0,0,0,4,6.1V17.321a2.1,2.1,0,0,0,2.1,2.1H21.527a2.1,2.1,0,0,0,2.1-2.1V6.1A2.1,2.1,0,0,0,21.527,4Zm.7,13.321a.7.7,0,0,1-.7.7H6.1a.7.7,0,0,1-.7-.7V6.1a.7.7,0,0,1,.7-.7H21.527a.7.7,0,0,1,.7.7Z" transform="translate(-3.649 -3.649)"/><rect class="b" width="16" height="13" rx="2" transform="translate(2.427 1.849)"/><path class="c" d="M27.424,8.7V19.218H14.307A2.31,2.31,0,0,1,12,16.911V8H26.723A.7.7,0,0,1,27.424,8.7Z" transform="translate(-8.845 -6.247)"/><path class="d" d="M26.764,59.7H18.351a.351.351,0,0,1,0-.7h8.413a.351.351,0,0,1,0,.7Z" transform="translate(-12.742 -39.369)"/><path class="e" d="M20.878,3H5.454A2.454,2.454,0,0,0,3,5.454V16.671a2.454,2.454,0,0,0,2.454,2.454h4.708l-1.2,3.505H8.609a.351.351,0,1,0,0,.7h8.413a.351.351,0,1,0,0-.7h-.351l-1.2-3.505h5.409a2.454,2.454,0,0,0,2.454-2.454V5.454A2.454,2.454,0,0,0,20.878,3ZM15.932,22.631H9.7l1.2-3.505h3.828Zm6.7-5.959a1.753,1.753,0,0,1-1.753,1.753H5.454A1.753,1.753,0,0,1,3.7,16.671V5.454A1.753,1.753,0,0,1,5.454,3.7H20.878a1.753,1.753,0,0,1,1.753,1.753Z" transform="translate(-3 -3)"/><path class="e" d="M23.476,7H8.052A1.052,1.052,0,0,0,7,8.052v2.1a.351.351,0,0,0,.7,0v-2.1A.351.351,0,0,1,8.052,7.7H23.476a.351.351,0,0,1,.351.351V19.269a.351.351,0,0,1-.351.351H8.052a.351.351,0,0,1-.351-.351V13.31a.351.351,0,0,0-.7,0v5.959a1.052,1.052,0,0,0,1.052,1.052H23.476a1.052,1.052,0,0,0,1.052-1.052V8.052A1.052,1.052,0,0,0,23.476,7Z" transform="translate(-5.598 -5.598)"/><path class="e" d="M7.351,20.052A.351.351,0,0,0,7.7,19.7v-.351a.351.351,0,1,0-.7,0V19.7A.351.351,0,0,0,7.351,20.052Z" transform="translate(-5.598 -13.391)"/></svg>