<svg xmlns="http://www.w3.org/2000/svg" width="20.361" height="20.358" viewBox="0 0 20.361 20.358"><defs><style>.a,.b{fill:#baa68b;}.a{opacity:0.631;}.c{fill:#f5f7ff;}.d{fill:#54a5ff;}.e{fill:#b4cde1;}.f{fill:#ccd3eb;}.g{fill:#033c59;}</style></defs><path class="a" d="M10.318,35.753H4.7a.7.7,0,0,1-.7-.7V25.223L5.053,24.8l.7-.281A7.831,7.831,0,0,0,8.3,22.64L10.156,34.7Z" transform="translate(-3.649 -15.746)"/><path class="b" d="M12.1,34.7H9.457A2.457,2.457,0,0,1,7,32.243V24.8l.7-.281a7.831,7.831,0,0,0,2.545-1.881Z" transform="translate(-5.596 -15.746)"/><path class="a" d="M48.318,25.775V35.6a.7.7,0,0,1-.7.7H42L44.3,23.49a7.841,7.841,0,0,0,2.264,1.583Z" transform="translate(-28.311 -16.298)"/><path class="c" d="M27.587,10.841,26.06,19.36c-.456-.218-.639-.656-1.369-.656-.972,0-.972.779-1.945.779s-.969-.779-1.941-.779-.972.779-1.941.779c-.7,0-.9-.418-1.337-.639l-1.278-8.3a7.827,7.827,0,0,0,2.018-5.251V4h7.02V5.292a7.845,7.845,0,0,0,2.3,5.55Z" transform="translate(-11.599 -3.649)"/><path class="d" d="M59.1,4.638a6.122,6.122,0,0,0-.484-.548" transform="translate(-39.098 -3.707)"/><path class="a" d="M10.318,4V5.292a7.831,7.831,0,0,1-.383,2.415,7.859,7.859,0,0,1-4.18,4.717L4,13.126V4.7A.7.7,0,0,1,4.7,4Z" transform="translate(-3.649 -3.649)"/><path class="b" d="M12.265,4V5.292a7.831,7.831,0,0,1-.383,2.415,7.82,7.82,0,0,1-3.127,2.611h0A1.281,1.281,0,0,1,7,9.128V4Z" transform="translate(-5.596 -3.649)"/><path class="a" d="M48.318,4.7v8.424l-1.755-.7A7.859,7.859,0,0,1,42,5.292V4h5.616a.656.656,0,0,1,.207.032A.7.7,0,0,1,48.318,4.7Z" transform="translate(-28.311 -3.649)"/><path class="b" d="M42,4V5.292a7.831,7.831,0,0,0,.383,2.415,7.82,7.82,0,0,0,3.127,2.611h0a1.281,1.281,0,0,0,1.755-1.19V4Z" transform="translate(-28.311 -3.649)"/><path class="e" d="M26.351,36.755A.351.351,0,0,1,26,36.4,1.4,1.4,0,0,1,27.4,35a.351.351,0,0,1,0,.7.7.7,0,0,0-.7.7A.351.351,0,0,1,26.351,36.755Z" transform="translate(-17.927 -23.768)"/><path class="e" d="M24.4,36.755a.351.351,0,0,1-.351-.351.7.7,0,0,0-.7-.7.351.351,0,0,1,0-.7,1.4,1.4,0,0,1,1.4,1.4A.351.351,0,0,1,24.4,36.755Z" transform="translate(-15.98 -23.768)"/><path class="e" d="M34.351,29.755A.351.351,0,0,1,34,29.4,1.4,1.4,0,0,1,35.4,28a.351.351,0,0,1,0,.7.7.7,0,0,0-.7.7A.351.351,0,0,1,34.351,29.755Z" transform="translate(-23.119 -19.225)"/><path class="e" d="M32.4,29.755a.351.351,0,0,1-.351-.351.7.7,0,0,0-.7-.7.351.351,0,1,1,0-.7,1.4,1.4,0,0,1,1.4,1.4A.351.351,0,0,1,32.4,29.755Z" transform="translate(-21.172 -19.225)"/><path class="f" d="M31.094,17.755a1.088,1.088,0,0,1-.046.305,1.053,1.053,0,0,1-1.007.748H26.707a.882.882,0,1,1-.175-1.755.814.814,0,0,1,.161,0,.877.877,0,0,1,.541.186,1.661,1.661,0,0,1,0-.186,1.053,1.053,0,0,1,.263-.7,1.018,1.018,0,0,1,.484-.312A1.088,1.088,0,0,1,28.286,16a1.053,1.053,0,0,1,1.053.976,1.053,1.053,0,0,1,1.755.779Z" transform="translate(-17.757 -11.437)"/><path class="b" d="M42.46,34.7h2.646a2.457,2.457,0,0,0,2.457-2.457V24.8l-.7-.281a7.831,7.831,0,0,1-2.545-1.881Z" transform="translate(-28.61 -15.746)"/><path class="g" d="M23.358,12.477V4.053a1.428,1.428,0,0,0,0-.183.049.049,0,0,1,0-.021V3.821a1.053,1.053,0,0,0-.7-.758h-.021A1.053,1.053,0,0,0,22.3,3H4.053A1.053,1.053,0,0,0,3,4.053v8.424H3V22.3a1.053,1.053,0,0,0,1.053,1.053H22.3A1.053,1.053,0,0,0,23.358,22.3ZM17.808,7.942a.352.352,0,0,0-.632.309,8.073,8.073,0,0,0,1.267,1.85l-1.4,8.269a1.263,1.263,0,0,1-.305-.2,1.565,1.565,0,0,0-2.106,0,.867.867,0,0,1-1.232,0,1.565,1.565,0,0,0-2.106,0,.863.863,0,0,1-1.228,0,1.576,1.576,0,0,0-.846-.4L7.931,10.1A8.213,8.213,0,0,0,10.02,4.643V3.7h6.318V5.131a.351.351,0,0,0,.351.326h.025a.351.351,0,0,0,.326-.376V3.7h5.293a4.693,4.693,0,0,1,.323.351v7.9l-1.257-.5a7.49,7.49,0,0,1-3.591-3.513ZM9.736,20.978a.744.744,0,0,1,.383.2,1.369,1.369,0,0,0,1.853,0,.66.66,0,0,1,.505-.207.67.67,0,0,1,.488.207,1.369,1.369,0,0,0,1.853,0,.674.674,0,0,1,.491-.207.663.663,0,0,1,.488.207,1.4,1.4,0,0,0,.734.351L16.338,22.6a.323.323,0,0,0,0,.056H10.02a.323.323,0,0,0,0-.056Zm6.894-.151a.7.7,0,0,1-.411-.2,1.372,1.372,0,0,0-1.857,0,.677.677,0,0,1-.976,0,1.369,1.369,0,0,0-1.853,0,.67.67,0,0,1-.488.207.66.66,0,0,1-.488-.207,1.358,1.358,0,0,0-.927-.351h0l-.291-1.755a1.4,1.4,0,0,1,.281.19,1.555,1.555,0,0,0,2.106,0,.874.874,0,0,1,1.236,0,1.558,1.558,0,0,0,2.106,0,.874.874,0,0,1,1.235,0,1.755,1.755,0,0,0,.628.351ZM4.053,3.7H9.318v.941a7.518,7.518,0,0,1-4.342,6.806L3.7,11.957v-7.9A.351.351,0,0,1,4.053,3.7ZM3.7,22.3V12.716l1.551-.621a8.171,8.171,0,0,0,2.071-1.372L9.318,22.656H4.053A.351.351,0,0,1,3.7,22.3Zm18.6.351H17.04l.621-3.714a.351.351,0,0,0,.046-.165.246.246,0,0,0,0-.049l1.33-8.006a8.283,8.283,0,0,0,2.085,1.4l1.534.59V22.3A.351.351,0,0,1,22.3,22.656Z" transform="translate(-3 -3)"/><path class="g" d="M42.317,12.191a.351.351,0,0,0-.681.168c.035.137.067.277.112.414a.351.351,0,0,0,.351.239.439.439,0,0,0,.112-.018.351.351,0,0,0,.221-.446A1.7,1.7,0,0,1,42.317,12.191Z" transform="translate(-28.071 -8.8)"/><path class="g" d="M25.457,35a1.4,1.4,0,0,0-1.053.484A1.4,1.4,0,0,0,23.351,35a.351.351,0,0,0,0,.7.7.7,0,0,1,.7.7.351.351,0,0,0,.7,0,.7.7,0,0,1,.7-.7.351.351,0,0,0,0-.7Z" transform="translate(-15.98 -23.768)"/><path class="g" d="M33.457,28a1.4,1.4,0,0,0-1.053.484A1.4,1.4,0,0,0,31.351,28a.351.351,0,0,0,0,.7.7.7,0,0,1,.7.7.351.351,0,0,0,.7,0,.7.7,0,0,1,.7-.7.351.351,0,0,0,0-.7Z" transform="translate(-21.172 -19.225)"/><path class="g" d="M29.563,15.711a1.372,1.372,0,0,0-.491.091,1.4,1.4,0,0,0-2.625.281,1.116,1.116,0,0,0-.218-.021,1.228,1.228,0,0,0,0,2.457h3.334a1.4,1.4,0,1,0,0-2.808Zm0,2.106H26.228a.526.526,0,0,1,0-1.053.512.512,0,0,1,.3.095h0a.33.33,0,0,0,.235.095H26.8a.3.3,0,0,0,.06-.018l.049-.018a.246.246,0,0,0,.074-.049l.035-.028a.481.481,0,0,0,.046-.07.19.19,0,0,0,.025-.046.544.544,0,0,0,0-.074.246.246,0,0,0,0-.049v-.186a.7.7,0,0,1,1.4-.053v.042a.257.257,0,0,0,0,.07l.032.056a.292.292,0,0,0,.028.042l.021.018.042.028a.221.221,0,0,0,.074.042h.046a.615.615,0,0,0,.084,0h.06a.256.256,0,0,0,.07,0l.06-.035a.369.369,0,0,0,.039-.025.711.711,0,1,1,.512,1.214Z" transform="translate(-17.278 -10.797)"/></svg>