<svg xmlns="http://www.w3.org/2000/svg" xmlns:xlink="http://www.w3.org/1999/xlink" width="20.332" height="20.358" viewBox="0 0 20.332 20.358"><defs><style>.a{fill:#b4cde1;}.b{fill:#ccd3eb;}.c{fill:#f5f7ff;}.d{fill:#96a1c3;}.e{fill:url(#a);}.f{fill:url(#b);}.g{fill:url(#c);}.h{fill:url(#d);}.i{fill:url(#e);}.j{fill:#baa68b;}.k{fill:url(#f);}.l{fill:#033c59;}</style><linearGradient id="a" y1="0.502" x2="1" y2="0.502" gradientUnits="objectBoundingBox"><stop offset="0" stop-color="#fe9661"/><stop offset="1" stop-color="#ffb369"/></linearGradient><linearGradient id="b" x1="-0.002" y1="0.5" x2="0.987" y2="0.5" xlink:href="#a"/><linearGradient id="c" y1="0.503" x2="0.987" y2="0.503" xlink:href="#a"/><linearGradient id="d" x1="0.001" y1="0.5" x2="0.999" y2="0.5" xlink:href="#a"/><linearGradient id="e" x1="0.003" y1="0.5" x2="0.999" y2="0.5" xlink:href="#a"/><linearGradient id="f" y1="0.5" x2="1" y2="0.5" gradientUnits="objectBoundingBox"><stop offset="0" stop-color="#54a5ff"/><stop offset="1" stop-color="#8ad3fe"/></linearGradient></defs><path class="a" d="M31.351,18.959A.351.351,0,0,1,31,18.609V13.351a.351.351,0,0,1,.7,0v5.258A.351.351,0,0,1,31.351,18.959Z" transform="translate(-21.185 -9.469)"/><path class="b" d="M23.631,35.4v4.557a1.283,1.283,0,0,1-.046.351,1.4,1.4,0,0,1-1.357,1.052H5.4a1.4,1.4,0,0,1-1.4-1.4V35.4A1.4,1.4,0,0,1,5.4,34H22.229A1.4,1.4,0,0,1,23.631,35.4Z" transform="translate(-3.649 -23.107)"/><path class="c" d="M26.229,35.4v4.557a1.283,1.283,0,0,1-.046.351h-14.3A3.884,3.884,0,0,1,8,36.426V34H24.826A1.4,1.4,0,0,1,26.229,35.4Z" transform="translate(-6.247 -23.107)"/><path class="d" d="M50.8,55v1.052a.7.7,0,0,1-.7.7H48.7a.7.7,0,0,1-.7-.7V55Z" transform="translate(-32.225 -36.746)"/><path class="d" d="M10.8,55v1.052a.7.7,0,0,1-.7.7H8.7a.7.7,0,0,1-.7-.7V55Z" transform="translate(-6.247 -36.746)"/><path class="b" d="M52.1,55v1.052H50.7a.7.7,0,0,1-.7-.7V55Z" transform="translate(-33.524 -36.746)"/><path class="b" d="M12.1,55v1.052H10.7a.7.7,0,0,1-.7-.7V55Z" transform="translate(-7.546 -36.746)"/><path class="b" d="M28.413,29.7v1.052H20V29.7a.7.7,0,0,1,.7-.7h7.011A.7.7,0,0,1,28.413,29.7Z" transform="translate(-14.041 -19.86)"/><path class="c" d="M30.362,29.7v.351H23.729A.729.729,0,0,1,23,29.323V29h6.66A.7.7,0,0,1,30.362,29.7Z" transform="translate(-15.989 -19.86)"/><path class="e" d="M30.052,8A1.052,1.052,0,0,0,29,9.052v.105a.978.978,0,0,0,.077.3,1.052,1.052,0,0,0,.249.351.922.922,0,0,0,.273.186l.1.042h0a.982.982,0,0,0,.673,0h0l.1-.042a.922.922,0,0,0,.273-.186A1.052,1.052,0,0,0,31,9.458a.978.978,0,0,0,.105-.3V9.052A1.052,1.052,0,0,0,30.052,8Zm0,1.4a.351.351,0,1,1,.351-.351A.351.351,0,0,1,30.052,9.4Z" transform="translate(-19.886 -6.221)"/><path class="f" d="M35.6,9.433a.349.349,0,0,1-.245-.6,1.753,1.753,0,0,0,0-2.482.35.35,0,0,1,.494-.494,2.454,2.454,0,0,1,.018,3.488.351.351,0,0,1-.266.084Z" transform="translate(-23.944 -4.766)"/><path class="g" d="M25.967,9.4a.351.351,0,0,1-.249-.1,2.454,2.454,0,0,1,0-3.47.351.351,0,1,1,.494.494,1.753,1.753,0,0,0,0,2.482.349.349,0,0,1-.245.6Z" transform="translate(-17.288 -4.728)"/><path class="h" d="M38.417,8.585a.351.351,0,0,1-.249-.6,3.155,3.155,0,0,0,0-4.459.352.352,0,0,1,.5-.5,3.856,3.856,0,0,1,0,5.455.351.351,0,0,1-.249.1Z" transform="translate(-25.772 -2.926)"/><path class="i" d="M22.375,8.585a.351.351,0,0,1-.249-.1,3.856,3.856,0,0,1,0-5.455.352.352,0,0,1,.5.5,3.155,3.155,0,0,0,0,4.459.351.351,0,0,1-.249.6Z" transform="translate(-14.688 -2.926)"/><circle class="j" cx="0.701" cy="0.701" r="0.701" transform="translate(10.867 14.048)"/><circle class="j" cx="0.701" cy="0.701" r="0.701" transform="translate(16.476 14.048)"/><circle class="j" cx="0.701" cy="0.701" r="0.701" transform="translate(13.671 14.048)"/><path class="k" d="M15.011,44.7H8.351a.351.351,0,1,1,0-.7h6.66a.351.351,0,1,1,0,.7Z" transform="translate(-6.247 -29.602)"/><path class="l" d="M21.579,16.764H17.723v-.7a1.052,1.052,0,0,0-1.052-1.052H13.516V10.1a.067.067,0,0,0,0-.028v-.032h0l.1-.042a1.052,1.052,0,0,0,.522-.54.978.978,0,0,0,.077-.3V9.052a1.052,1.052,0,1,0-2.1,0v.105a.978.978,0,0,0,.077.3,1.052,1.052,0,0,0,.522.54l.1.042h0v.032a.067.067,0,0,0,0,.032v4.908H9.66a1.052,1.052,0,0,0-1.052,1.052v.7H4.753A1.753,1.753,0,0,0,3,18.516v4.557a1.753,1.753,0,0,0,1.4,1.718v.736a1.052,1.052,0,0,0,1.052,1.052h1.4a1.052,1.052,0,0,0,1.052-1.052v-.7h6.66a.351.351,0,0,0,0-.7H4.753A1.052,1.052,0,0,1,3.7,23.074V18.516a1.052,1.052,0,0,1,1.052-1.052H21.579a1.052,1.052,0,0,1,1.052,1.052v4.557a1.052,1.052,0,0,1-1.052,1.052H17.723a.351.351,0,0,0,0,.7h.7v.7a1.052,1.052,0,0,0,1.052,1.052h1.4a1.052,1.052,0,0,0,1.052-1.052v-.736a1.753,1.753,0,0,0,1.4-1.718V18.516A1.753,1.753,0,0,0,21.579,16.764ZM5.1,24.826h2.1v.7a.351.351,0,0,1-.351.351h-1.4a.351.351,0,0,1-.351-.351ZM12.815,9.052a.351.351,0,1,1,.351.351A.351.351,0,0,1,12.815,9.052Zm4.207,7.712H9.31v-.7a.351.351,0,0,1,.351-.351h7.011a.351.351,0,0,1,.351.351Zm4.207,8.764a.351.351,0,0,1-.351.351h-1.4a.351.351,0,0,1-.351-.351v-.7h2.1Z" transform="translate(-3 -6.221)"/><circle class="c" cx="0.351" cy="0.351" r="0.351" transform="translate(9.815 2.48)"/><path class="l" d="M39.7,54h-.351a.351.351,0,0,0,0,.7H39.7a.351.351,0,1,0,0-.7Z" transform="translate(-26.38 -36.096)"/><path class="l" d="M35.367,9.382a.373.373,0,0,0,.512,0,2.454,2.454,0,0,0,0-3.47.35.35,0,1,0-.494.494,1.753,1.753,0,0,1,0,2.482A.351.351,0,0,0,35.367,9.382Z" transform="translate(-23.96 -4.798)"/><path class="l" d="M25.718,9.343a.35.35,0,0,0,.494-.494,1.753,1.753,0,0,1,0-2.482.351.351,0,1,0-.494-.494A2.454,2.454,0,0,0,25.718,9.343Z" transform="translate(-17.288 -4.76)"/><path class="l" d="M38.168,7.986a.352.352,0,0,0,.5.5,3.856,3.856,0,0,0,0-5.455.352.352,0,0,0-.5.5,3.155,3.155,0,0,1,0,4.459Z" transform="translate(-25.772 -2.926)"/><path class="l" d="M22.375,8.585a.351.351,0,0,0,.249-.6,3.155,3.155,0,0,1,0-4.459.352.352,0,0,0-.5-.5,3.856,3.856,0,0,0,0,5.455.351.351,0,0,0,.249.1Z" transform="translate(-14.688 -2.926)"/><path class="l" d="M34.052,42A1.052,1.052,0,1,0,35.1,43.052,1.052,1.052,0,0,0,34.052,42Zm0,1.4a.351.351,0,1,1,.351-.351A.351.351,0,0,1,34.052,43.4Z" transform="translate(-22.484 -28.303)"/><path class="l" d="M51.1,43.052A1.052,1.052,0,1,0,50.052,44.1,1.052,1.052,0,0,0,51.1,43.052Zm-1.4,0a.351.351,0,1,1,.351.351A.351.351,0,0,1,49.7,43.052Z" transform="translate(-32.875 -28.303)"/><path class="l" d="M42.052,44.1A1.052,1.052,0,1,0,41,43.052,1.052,1.052,0,0,0,42.052,44.1Zm0-1.4a.351.351,0,1,1-.351.351A.351.351,0,0,1,42.052,42.7Z" transform="translate(-27.679 -28.303)"/><path class="l" d="M8.351,44a.351.351,0,1,0,0,.7h6.66a.351.351,0,1,0,0-.7Z" transform="translate(-6.247 -29.602)"/><circle class="j" cx="0.351" cy="0.351" r="0.351" transform="translate(9.815 2.48)"/></svg>